<?xml version="1.0" encoding="utf-8"?>
<!-- Generator: Adobe Illustrator 24.3.0, SVG Export Plug-In . SVG Version: 6.00 Build 0)  -->
<svg version="1.1" id="Calque_1" xmlns="http://www.w3.org/2000/svg" xmlns:xlink="http://www.w3.org/1999/xlink" x="0px" y="0px"
	 viewBox="0 0 687 416" style="enable-background:new 0 0 687 416;" xml:space="preserve">
<style type="text/css">
	.st0{opacity:0.15;stroke:#000000;stroke-miterlimit:10;enable-background:new    ;}
	.st1{fill:#131718;}
	.st2{fill:#FFFFFF;}
</style>
<path class="st0" d="M360.7,214.2l-66.3-2.5c0,0-7.6,67.8-13.1,113.7s-63.9,49.5-63.9,49.5C200.7,378.6,202,390,202,390
	c0.7-35.5-48-57.2-48-57.2c-29.8-14.6-9.7-33.4-9.7-33.4c21.7-21.7,1.8-22.7,1.8-22.7c1.2-3.9,7.1-10.7,25-2.3
	c20.3,9.5-2.4,29.8-11.4,42.4s2.6,17.4,2.6,17.4s16.6,9.1,36.1,13.6c38.5,8.9,52.1-26.3,52.1-26.3c31.2-66,18-194.8,18-194.8
	C257.3,45,224.4,20.6,211.9,14.2c0,0-9.6-4.8-23.1-7.4C125-2,98.3,30.7,98,31S76.1,59,86.9,86.1c5.9,15,20.7,27.1,43.7,36
	c28.2,10.9,61.5,1.5,74.8-14.2c0.2-0.2,22.3-24.3,1.4-40.8l2.3-1.6c22.7,17.9-0.8,43.5-1,43.7c-10.5,12.3-32.7,21-55.7,19.8
	c-7.8-0.4-15.6-1.9-23.2-4.8c-23.8-9.2-39-21.8-45.3-37.4C72.7,58.7,95,30.1,95.3,29.8c0.3-0.3,27.9-34.4,94.1-25.2l2.1,0.2
	c17.7,2.9,27.3,7.6,27.3,7.6C292.5,42,295,189.9,295,189.9l65.7,2.9V214.2z M604.8,317.2c0,0-46.5,77.3-147.4,40.9
	c-49.9-18-70.2-93.9-70.2-93.9S351.8,117.7,457.4,32c0,0,59.2-45.6,125.3,2.5c0,0-42.2-46.9-110.8-25.9
	c-54.2,16.6-86.3,81.2-86.3,81.2s-26.8,61-25,113.8l0.1,22.7c0,0,4.7,142,134.2,148c0,0,79.2,2,114.7-57.4L604.8,317.2z"/>
<path class="st1" d="M37.6,194H67v-25.5c0-4.4-0.2-7.6-0.5-9.6c-0.6-3.7-2.3-5.9-5.2-6.7c-1.3-0.3-3.1-0.5-5.5-0.5h-0.6v-3.5h49.4
	v3.5h-3.2c-4.3,0-7.3,0.9-8.8,2.7c-1.2,1.6-2,4.1-2.2,7.5c-0.1,1.4-0.2,3.7-0.2,6.7v60.3c0,4.4,0.2,7.6,0.5,9.5
	c0.6,3.7,2.3,6,5.2,6.8c1.3,0.3,3.1,0.4,5.5,0.4h3.2v3.6H55.2v-3.6h0.6c4.3,0,7.3-0.8,8.9-2.7c1.2-1.6,1.9-4.1,2.2-7.5
	c0.1-1.5,0.2-3.7,0.2-6.7v-31.2H37.6v31.2c0,4.4,0.2,7.6,0.5,9.5c0.6,3.7,2.3,6,5.2,6.8c1.3,0.3,3.1,0.4,5.5,0.4h0.6v3.6H0v-3.6h3.2
	c4.3,0,7.3-0.8,8.9-2.7c1.2-1.6,1.9-4.1,2.2-7.5c0.1-1.5,0.2-3.7,0.2-6.7v-60.3c0-4.4-0.2-7.6-0.5-9.6c-0.6-3.7-2.3-5.9-5.2-6.7
	c-1.3-0.3-3.1-0.5-5.5-0.5H0v-3.5h49.4v3.5h-0.6c-4.3,0-7.3,0.9-8.8,2.7c-1.3,1.6-2,4.1-2.2,7.5c-0.1,1.4-0.2,3.7-0.2,6.7
	C37.6,168.3,37.6,194,37.6,194z M13.6,151.6c1.2,1.4,2,3.1,2.4,5c0.6,2.4,0.9,5.6,0.9,9.8v64.5c0,4.1-0.3,7.4-0.9,9.8
	c-0.5,1.9-1.3,3.5-2.4,5H32c-0.9-1.6-1.4-3.3-1.7-5c-0.2-1.4-0.3-3.8-0.3-7.1V164c0-3.4,0.1-5.7,0.3-7.2c0.3-1.7,0.8-3.3,1.7-5H13.6
	V151.6z M66.2,151.6c1.2,1.4,2,3.1,2.5,5c0.6,2.4,0.9,5.7,0.9,9.8v64.5c0,4-0.3,7.3-0.9,9.8c-0.5,1.9-1.3,3.5-2.5,5h18.4
	c-0.9-1.6-1.4-3.3-1.7-5c-0.2-1.4-0.3-3.8-0.3-7.1V164c0-3.4,0.1-5.7,0.3-7.2c0.3-1.7,0.8-3.3,1.7-5H66.2V151.6z M150.9,221h-27.3
	c-0.4,1.9-0.6,3.7-0.6,5.4c0,4.8,1,9.1,3.1,12.9c1.3,2.4,2.8,4,4.6,4.9c1.3,0.6,3.5,1.1,6.4,1.3v3.6h-35.9v-3.6
	c6.5-0.3,13-9,19.3-26l27.3-74.3h2.4l30.8,84.4c1.8,4.8,3.2,8.1,4.4,9.9c2.1,3.3,4.4,5.2,6.8,5.7c1,0.2,2.1,0.3,3.4,0.3h1.4v3.6h-52
	v-3.6h5.1c2.1,0,3.6-0.7,4.7-2.1c1.1-1.4,1.6-3,1.6-4.7c0-1.5-0.4-3.3-1.2-5.4L150.9,221z M119.8,245.5c-1.3-3.1-1.9-6.2-1.9-9.4
	c0-1.1,0.1-2.6,0.2-4.4c-3.1,6.8-6.3,11.4-9.5,13.8L119.8,245.5L119.8,245.5z M149.4,217.5l-12.6-35.2l-12.5,35.2H149.4z
	 M177.6,245.5l-31.9-87.3l-7.5,20.3l19.6,54.4c0.8,2.1,1.2,4,1.2,5.8c0,2.5-0.7,4.8-2,6.7h20.6V245.5z M263.9,178.9v28.2
	c0,9.6-0.7,17-2.2,22.2c-4.2,15.4-15,23.1-32.4,23.1c-11.1,0-19.2-4.4-24.2-13.3c-2.6-4.6-4.3-10.2-5-16.9
	c-0.3-3.2-0.5-7.9-0.5-14.1v-39.6c0-4.4-0.2-7.6-0.5-9.6c-0.6-3.7-2.3-5.9-5.2-6.7c-1.3-0.3-3.1-0.5-5.5-0.5h-3.2v-3.5h52v3.5H234
	c-4.3,0-7.3,0.9-8.8,2.7c-1.2,1.6-2,4.1-2.2,7.5c-0.1,1.4-0.2,3.7-0.2,6.7v54c0,7.4,1.1,13.1,3.3,17.1c1.4,2.6,3.2,4.6,5.4,6.1
	s4.5,2.2,6.9,2.2c5.3,0,10.1-2.5,14.6-7.5c4.1-4.7,6.7-11.2,7.5-19.5c0.3-3.2,0.5-8.1,0.5-15v-26.9c0-11.3-2.1-19.1-6.1-23.4
	c-2.5-2.6-5.4-3.9-8.6-3.9v-3.5h31.5v3.5c-3.3,0.5-6.1,2.2-8.3,5C265.9,161.5,264,168.9,263.9,178.9 M224.6,248.7
	c-6.3-5.4-9.4-14.4-9.2-27.2v-57.7c0-3.3,0.1-5.7,0.3-7.1c0.3-1.7,0.8-3.4,1.7-5H199c1.1,1.4,1.9,3.1,2.5,5c0.6,2.4,0.9,5.7,0.9,9.8
	v46.1c0,9.1,1.1,16.1,3.2,21c2.8,6.7,7.2,11.4,13.4,14C220.6,248.2,222.5,248.6,224.6,248.7 M265,151.6h-9.9c1.6,1.6,3,3.4,4.1,5.4
	c1.1,2.1,1.9,4.1,2.4,6.3c0.1-2.3,0.5-4.4,1.1-6.4C263.3,154.9,264,153.2,265,151.6 M365.6,157.9l-31.1,91.2h-1.8l-32.3-81.4v50.6
	c0,11.3,2.1,19.1,6.1,23.4c2.5,2.6,5.4,3.9,8.6,3.9v3.6h-33.5v-3.6c4.4-0.1,7.9-1.8,10.3-5c3.7-5.1,5.6-12.5,5.6-22.3v-57.9
	c-2.6-6-6.9-9-12.9-8.9h-2.7V148H320l24.8,63l21.2-63h37.1v3.5H400c-4.3,0-7.3,0.9-8.8,2.7c-1.2,1.6-2,4.1-2.2,7.5
	c-0.1,1.4-0.2,3.7-0.2,6.7v60.3c0,4.4,0.2,7.6,0.5,9.5c0.6,3.7,2.3,6,5.2,6.8c1.3,0.3,3.1,0.4,5.5,0.4h3.2v3.6h-51.9v-3.6h3.2
	c4.3,0,7.3-0.8,8.9-2.7c1.2-1.6,1.9-4.1,2.2-7.5c0.1-1.5,0.2-3.7,0.2-6.7v-70.6H365.6z M301.1,245.5c-1.9-2.7-2.9-6.6-3.3-11.8
	c-1.1,4.7-3.3,8.7-6.6,11.8H301.1z M311.5,151.6h-17.1c1.5,1.1,2.8,2.7,4,4.7c1,1.7,2.2,4.4,3.6,8l31.6,80l6.7-19.7L311.5,151.6z
	 M383.2,151.6h-15v79.2c0,4-0.3,7.3-0.9,9.8c-0.5,1.9-1.3,3.5-2.5,5h18.4c-0.9-1.6-1.4-3.3-1.7-5c-0.2-1.4-0.3-3.8-0.3-7.1v-69.6
	c0-3.4,0.1-5.7,0.3-7.2C381.8,154.9,382.4,153.2,383.2,151.6 M452.7,144.8c12.3,0,22.6,4.3,30.8,13c4.3,4.5,7.7,10.1,10.2,16.7
	c2.9,7.7,4.4,16.2,4.4,25.4c0,11.8-2.3,22.3-7,31.5c-7.1,14-19.1,21-35.8,21c-10,0-18.2-2.2-24.5-6.7c-7.3-5.1-12.9-12.3-16.8-21.5
	c-3.3-7.9-5-16.5-5-25.9c0-11.8,2.4-22.3,7.3-31.4c4-7.5,9-13,15-16.7C437.4,146.6,444.5,144.8,452.7,144.8 M441.6,149.3
	c-6.5,1.6-12.2,5.2-17,10.7c-4.1,4.8-7.3,10.5-9.5,17.2s-3.3,13.6-3.3,20.9c0,11.9,2.7,22.4,8.2,31.6c4.2,7.2,9.4,12.3,15.5,15.4
	c1.8,0.9,3.6,1.6,5.6,2.1c-3.3-4.5-6-9.2-7.9-14.3c-4-10.5-6-22.1-6-34.8c0-11.3,1.7-21.6,5.1-31.2
	C434.4,161,437.5,155.1,441.6,149.3 M453.8,148.4c-6,0-10.5,5.4-13.4,16.1c-2.8,10.3-4.2,21.6-4.2,33.9c0,12.4,1.4,23.9,4.1,34.4
	c1.7,6.2,3.9,10.7,6.7,13.5c1.8,1.8,4.3,2.7,7.4,2.7c6.4,0,11.1-5.5,14-16.6c2.2-8.6,3.4-19.1,3.4-31.5c0-14.6-1.3-26.6-3.9-36
	c-1.8-6.7-4.3-11.5-7.5-14.3C458.8,149.1,456.6,148.4,453.8,148.4 M463.5,149.2c3.3,5,5.7,10.6,7.3,16.7c2.4,9.6,3.6,21.1,3.6,34.5
	c0,12.2-1.2,22.9-3.5,31.9c-1.4,5.4-3.1,9.7-5.2,13c-0.5,0.8-1.2,1.9-2.3,3.3c5.5-1.2,10.5-4.9,14.9-11.2c3.7-5.1,6.5-11.2,8.5-18.1
	c1.9-6.5,2.8-13.1,2.8-19.9c0-9.6-1.8-19-5.4-28s-8.5-15.5-14.8-19.5C467.9,151.1,466,150.2,463.5,149.2 M542.6,148.1l38.8,55.5
	v-24.7c0-11.3-2-19.1-6-23.4c-2.5-2.6-5.4-3.9-8.6-3.9v-3.5h33.5v3.5c-4.4,0.2-7.9,1.8-10.3,5c-1.9,2.5-3.3,5.6-4.3,9.2
	c-0.9,3.6-1.4,8-1.4,13.1v73.5h-2.2L523,167.2v51.1c0,11.3,2.1,19.1,6.1,23.4c2.5,2.6,5.4,3.9,8.6,3.9v3.6h-33.5v-3.6
	c4.4-0.1,7.9-1.8,10.3-5c3.7-5.1,5.6-12.5,5.6-22.3v-54.8l-2.3-3.2c-0.9-1.2-2.1-2.6-3.9-4.3c-1.7-1.7-3-2.8-3.8-3.4
	c-1.2-0.7-2.8-1.1-4.8-1h-0.4V148h37.7V148.1z M533.7,151.6h-20.6c2.6,2,5.6,5.4,9,10.1l59.9,85.9v-26.8L533.7,151.6z M523.7,245.5
	c-1.9-2.7-3-6.6-3.3-11.8c-1.1,4.7-3.3,8.7-6.6,11.8H523.7z M575.5,151.6c3.4,3.2,5.5,6.9,6.4,11.1c0.6-4.9,1.8-8.6,3.5-11.1H575.5z
	 M685.9,148.1v44.6h-2.3c-0.8-4.5-2.6-10.1-5.5-16.7c-3.1-7.4-7.1-13.9-11.9-19.7c-2.6-3.1-5.4-4.6-8.6-4.6h-1.7v77.1
	c0,4.4,0.2,7.6,0.5,9.5c0.6,3.7,2.3,6,5.2,6.8c1.3,0.3,3.1,0.4,5.5,0.4h3.2v3.6h-52v-3.6h3.2c4.3,0,7.3-0.8,8.8-2.7
	c1.2-1.6,1.9-4.1,2.2-7.5c0.1-1.4,0.2-3.7,0.2-6.7v-77.1h-1.5c-3.1,0-5.9,1.3-8.3,3.8c-8,9.1-13.8,21.5-17.7,37.2h-2.3v-44.6h83
	V148.1z M605.2,151.6v19.1c1.2-3.4,2.8-6.8,4.6-10.4c2-3.7,3.9-6.6,5.6-8.7L605.2,151.6L605.2,151.6z M631.9,245.5h18.4
	c-0.9-1.6-1.4-3.3-1.7-5c-0.2-1.4-0.3-3.7-0.3-7.1v-81.8h-13.1v79.2c0,4-0.3,7.3-0.9,9.8C633.8,242.5,633,244.1,631.9,245.5
	 M678.9,151.6h-13.2c2.2,2.1,4.6,5.2,7.2,9.2c2.2,3.5,4.2,7.1,6,11V151.6z M481.3,315.7l2.7,5.7c0.7,1.4,1.1,2.3,1.4,2.6
	c0.8,1,2.2,1.5,4.2,1.6h1.5v1.5h-15.2l-1.4-3.1c-3.3,3-6.4,4.5-9.5,4.5c-1.5,0-2.9-0.4-4.3-1.2c-1.4-0.8-2.5-1.9-3.4-3.4
	c-1.5-2.2-2.2-4.9-2.2-7.9c0-3.4,0.9-6.2,2.6-8.4c1.2-1.5,3.2-2.8,5.9-3.9c0.3-0.1,0.7-0.3,1.3-0.5l-1-2.2c-1.3-2.8-1.9-5.5-1.9-8.1
	c0-3.3,0.9-6,2.8-8c1.6-1.7,3.6-2.6,6-2.6c2.7,0,4.7,0.9,6.2,2.8c1.3,1.6,2,3.8,2,6.5s-0.7,5.1-2,7.2c-0.5,0.7-1.3,1.6-2.3,2.5
	l5.9,12.9c0.5-0.7,0.8-1.3,1-1.8c0.5-1.1,0.8-2.5,0.8-4.1c0-3.3-1.3-5.3-3.8-5.8V301h12.5v1.5c-0.9,0.3-1.8,1-2.7,2
	c-1.2,1.5-2.7,3.6-4.4,6.5L481.3,315.7z M460.6,306.6c-3.1,1.9-4.6,5-4.6,9.1c0,3.1,0.9,5.8,2.7,8c1.8,2.2,3.8,3.3,5.9,3.3
	c0.4,0,1-0.1,1.7-0.2c-1.3-1.3-2.5-3-3.5-5.1c-0.7-1.5-1.3-3.2-1.7-5c-0.5-2.2-0.8-4.2-0.8-6C460.2,309.6,460.4,308.2,460.6,306.6
	 M467.7,284.3c-1,0.4-1.8,1.1-2.5,1.8c-1.5,1.7-2.3,3.9-2.3,6.7c0,2.3,0.5,4.4,1.4,6.4l12.1,26.3h5.3l-13.3-28.9
	c-1.2-2.5-1.8-4.9-1.8-7.1C466.6,287.9,467,286.1,467.7,284.3 M465.5,304.8c-1.5,0.5-2.3,1.9-2.3,4.1c0,2.9,1,6.5,2.9,10.8
	c0.8,1.7,1.4,2.9,2.1,3.7c0.7,0.8,1.4,1.2,2.2,1.2c0.9,0,2.1-0.7,3.4-2L465.5,304.8z M474.1,300c2.6-2.2,3.8-5,3.8-8.6
	c0-2.1-0.5-3.8-1.6-5.2c-1.1-1.4-2.4-2.2-3.9-2.2c-1.7,0-2.6,1.4-2.6,4.2c0,1.7,0.7,4,2,6.9L474.1,300z M486,302.6h-4.4
	c1.3,1.6,1.9,3.5,1.9,5.7v0.6L486,302.6z M539.4,283.8v15.7h-0.9c-1.8-3.8-4-7.2-6.6-10.3c-1.8-2.1-3.3-3.3-4.7-3.6
	c-0.7-0.2-1.5-0.3-2.4-0.3h-4.4v18.3h1.1c2.1,0,3.9-1,5.3-2.9c1-1.4,1.8-3,2.5-4.6h1v16.7h-1c-0.6-1.7-1.5-3.2-2.7-4.7
	c-0.9-1.1-1.7-1.8-2.5-2.2c-0.8-0.4-1.7-0.7-2.6-0.7h-1.1v13.2c0,1.9,0.1,3.2,0.2,4.1c0.3,1.6,1,2.6,2.2,2.9
	c0.5,0.1,1.3,0.2,2.4,0.2h1.4v1.5h-22.3v-1.5h1.4c1.9,0,3.1-0.4,3.8-1.1c0.5-0.7,0.8-1.7,0.9-3.2c0.1-0.6,0.1-1.6,0.1-2.9v-25.9
	c0-1.9-0.1-3.3-0.2-4.1c-0.3-1.6-1-2.5-2.2-2.9c-0.6-0.1-1.3-0.2-2.4-0.2h-1.4v-1.5H539.4z M510.1,285.3c0.5,0.6,0.8,1.3,1.1,2.1
	c0.3,1,0.4,2.4,0.4,4.2v27.6c0,1.8-0.1,3.2-0.4,4.2c-0.2,0.8-0.6,1.5-1.1,2.1h7.9c-0.4-0.7-0.6-1.4-0.7-2.1
	c-0.1-0.6-0.1-1.6-0.1-3.1v-35.1L510.1,285.3L510.1,285.3z M527.9,308.3v-7.7c-0.9,1.7-2.2,2.9-3.7,3.8
	C525.7,305.4,527,306.7,527.9,308.3 M536.4,285.3h-6.7c2.6,2.2,4.8,5,6.7,8.5V285.3z M546.4,319.8v-21.7c0-1.6-0.1-2.7-0.2-3.4
	c-0.2-1.3-0.8-2.1-1.8-2.3c-0.5-0.1-1.1-0.2-2-0.2h-1.2v-1.4H560v1.4h-1.2c-1.5,0-2.6,0.3-3.1,1c-0.4,0.6-0.7,1.4-0.8,2.6
	c0,0.5-0.1,1.3-0.1,2.4v21.7c0,1.6,0.1,2.7,0.2,3.4c0.2,1.3,0.8,2.1,1.8,2.3c0.5,0.1,1.1,0.2,2,0.2h1.2v1.4h-18.7v-1.4h1.2
	c1.5,0,2.6-0.3,3.1-0.9c0.4-0.6,0.7-1.4,0.8-2.6C546.4,321.6,546.4,320.8,546.4,319.8 M546.3,292.1c0.8,1,1.2,2.7,1.1,5.2v23.1
	c0,2.5-0.4,4.2-1.1,5.2h6.4c-0.3-0.6-0.5-1.1-0.6-1.7c-0.1-0.5-0.1-1.4-0.1-2.6v-25c0-1.2,0-2,0.1-2.6s0.3-1.2,0.6-1.7h-6.4V292.1z
	 M575.8,325.7h2.7c1.5,0,2.8-0.3,3.9-0.9c1.1-0.6,2.3-1.6,3.5-3c2.1-2.5,3.9-5.2,5.3-8.1h0.8v13.4h-29.8v-1.4h1.2
	c1.5,0,2.6-0.3,3.1-0.9c0.4-0.6,0.7-1.4,0.8-2.6c0-0.5,0.1-1.3,0.1-2.4v-21.7c0-1.6-0.1-2.7-0.2-3.4c-0.2-1.3-0.8-2.1-1.8-2.3
	c-0.5-0.1-1.1-0.2-2-0.2h-1.2v-1.4h18.7v1.4h-1.2c-1.5,0-2.6,0.3-3.1,1c-0.4,0.6-0.7,1.4-0.8,2.6c0,0.5-0.1,1.3-0.1,2.4L575.8,325.7
	L575.8,325.7z M567.2,292.1c0.8,1,1.2,2.7,1.2,5.2v23.1c0,2.5-0.4,4.2-1.2,5.2h5.8v-29.3c0-1.2,0-2.1,0.1-2.6
	c0.1-0.6,0.3-1.2,0.6-1.7L567.2,292.1L567.2,292.1z M589.4,325.7v-7.1c-0.9,1.4-1.9,2.9-3.1,4.3c-1.1,1.3-2.2,2.2-3.1,2.8
	L589.4,325.7L589.4,325.7z M620,290.1v13.8h-0.8c-1.5-3.7-3.3-6.6-5.3-8.6c-2.8-2.9-5.8-4.3-8.9-4.3c-1.8,0-3.3,0.5-4.5,1.4
	c-0.6,0.5-1,1.1-1.3,1.8c-0.3,0.7-0.5,1.5-0.5,2.3c0,1.6,0.6,2.8,1.7,3.6c1,0.7,2.9,1.4,5.6,2.1l6,1.5c3.3,0.8,5.7,1.9,7.3,3.4
	c2.2,2,3.3,5.1,3.3,9.2c0,2.1-0.3,3.9-0.9,5.6c-0.6,1.7-1.5,3-2.6,4c-2,1.7-4.4,2.5-7.2,2.5c-3.4,0-6.4-1.2-9.1-3.6
	c-0.6-0.5-1.4-1.4-2.5-2.6l-4.6,5.2h-0.9v-15h0.9c1.4,3.5,3.3,6.6,5.7,9.2c1.7,1.8,3.4,3.2,5,4.1c1.7,0.9,3.5,1.3,5.4,1.3
	s3.5-0.4,4.7-1.3c1.1-0.8,1.6-2,1.6-3.7c0-1.9-0.9-3.3-2.6-4.3c-1.2-0.7-2.8-1.2-4.7-1.6l-6.8-1.5c-6.7-1.5-10-5.5-10-12.1
	c0-3.9,1.1-7.1,3.4-9.5c2.2-2.3,4.7-3.4,7.7-3.4c3.6,0,7,1.8,10.2,5.5l4.2-4.9h0.5V290.1z M597.6,294.1c-1.9,2-2.8,4.7-2.8,8.2
	c0,3.4,0.9,5.9,2.6,7.7c1.1,1.1,2.3,1.8,3.6,2.3c1.1,0.4,2.2,0.7,3.5,1l5.6,1.2c2.7,0.6,4.7,1.3,6.1,2.2c1.8,1.1,2.8,2.8,2.8,4.9
	c0,0.7-0.2,1.7-0.5,2.9c1.3-1.5,2-3.8,2-6.8c0-3.6-1.2-6.3-3.6-8.1c-1.4-1.1-3.3-1.9-5.6-2.4l-7.1-1.6c-2.7-0.6-4.6-1.4-5.7-2.4
	c-0.7-0.6-1.2-1.5-1.5-2.7c-0.2-0.7-0.3-1.5-0.3-2.3C596.7,297.2,597,295.8,597.6,294.1 M595.5,326l3.1-3.7
	c-1.1-1.2-2.1-2.8-3.1-4.8V326z M617.8,293.4l-2,2.5c0.5,0.7,1.2,1.7,2,3V293.4z"/>
<g>
	<path class="st2" d="M196,85.5c-2,3.2-4.5,6.3-10.5,6.3c-5.7,0-11.1-6.5-11.1-16.2c0-9.3,4.8-16.7,11-16.7c5.7,0,9.2,5,10.2,6.4
		l-2.3,2.9c-1-1.2-3.6-4.8-7.9-4.8c-3.9,0-8,4.3-8,12.2c0,5.6,3,11.7,8.8,11.7c4.5,0,6.8-3.4,7.8-5L196,85.5z"/>
	<polygon class="st2" points="216.4,59.6 219.4,59.6 219.4,72.4 231.7,72.4 231.7,59.6 234.7,59.6 234.7,91.2 231.7,91.2 
		231.7,76.9 219.4,76.9 219.4,91.2 216.4,91.2 	"/>
	<path class="st2" d="M275.9,91.2h-3.4l-3-10.4h-9.4L257,91.2h-3.3l9.5-31.5h3.4L275.9,91.2z M264.8,65.3l-3.3,11h6.6L264.8,65.3z"
		/>
	<polygon class="st2" points="297.9,69.1 297.8,69.1 297.8,91.2 294.8,91.2 294.8,59.6 297.8,59.6 305,79.2 312.2,59.6 315.2,59.6 
		315.2,91.2 312.2,91.2 312.2,69.1 312.1,69.1 305,88.5 	"/>
	<path class="st2" d="M350,59.6c3.2,0,6.1,2.8,6.1,8.8c0,6.7-2.9,9.3-6.1,9.3h-9.1v13.5h-3V59.6H350z M340.9,64.2v9h9.1
		c2.8,0,3.1-2.7,3.1-4.7c0-2.4-1-4.2-3.1-4.2h-9.1V64.2z"/>
	<path class="st2" d="M394.8,91.2h-3.4l-3-10.4H379l-3.1,10.4h-3.3l9.5-31.5h3.4L394.8,91.2z M383.6,65.3l-3.3,11h6.6L383.6,65.3z"
		/>
	<path class="st2" d="M423,74h9.6v8.4c0,5.7-4.2,9.5-9.4,9.5c-5.6,0-11.5-5.8-11.5-16.5c0-9,4.8-16.4,11.5-16.4c5,0,7.7,4,8.9,5.7
		l-2.1,3.2c-1-1.5-2.7-4.4-6.5-4.4c-5.6,0-8.8,5.5-8.8,12.1c0,6.2,3.3,11.7,8.6,11.7c3.6,0,6.3-2.5,6.3-5.2v-3.5H423V74z"/>
	<polygon class="st2" points="456,59.6 468.5,83.6 468.6,83.6 468.6,59.6 471.6,59.6 471.6,91.2 468.6,91.2 456.1,67.2 456,67.2 
		456,91.2 453,91.2 453,59.6 	"/>
	<polygon class="st2" points="510.7,59.6 510.7,64.2 496.5,64.2 496.5,72.5 503.6,72.5 503.6,77 496.5,77 496.5,86.6 511.2,86.6 
		511.2,91.2 493.5,91.2 493.5,59.6 	"/>
</g>
<g>
	<path class="st2" d="M140,323.6c-2-0.3-4-0.5-6.3-0.5c-2.2-0.1-4.4,0.1-6.7,0.3c-2.3,0.3-4.4,0.8-6.3,1.5c-2,0.7-3.7,1.7-5.1,2.9
		c-1.5,1.2-2.5,2.7-3.2,4.6c-0.5,1.4-0.6,2.7-0.3,4.1c0.3,1.4,0.7,2.7,1.4,3.9c0.6,1.2,1.4,2.4,2.2,3.4c0.8,1,1.6,1.9,2.3,2.7
		c0.6,0.7,0.9,1.2,0.7,1.4c-0.2,0.2-0.6,0-1.4-0.7c-2.4-2.3-4.2-4.6-5.3-6.8c-1.1-2.2-1.5-4.5-1.1-6.7c0.4-2.1,1.3-3.9,2.8-5.4
		s3.3-2.7,5.4-3.6s4.4-1.6,7-2c2.5-0.4,5-0.7,7.5-0.7c2.5-0.1,4.8,0,6.9,0.3c2.2,0.2,3.9,0.6,5.3,1c3.3,1.1,6.1,2.4,8.3,4
		c2.3,1.6,4.1,3.4,5.4,5.4c1.3,2,2.2,4,2.5,6.3c0.4,2.2,0.2,4.4-0.3,6.6c-0.6,2.2-1.6,4.4-3.1,6.5s-3.5,4-5.9,5.8
		c-0.9,0.6-2,1.3-3.5,2.1c-1.4,0.8-3,1.5-4.6,2.2c-1.7,0.7-3.4,1.2-5.2,1.7s-3.5,0.7-5.1,0.7s-3-0.3-4.2-0.9s-2.2-1.6-2.8-3
		c-0.1-0.3-0.3-0.4-0.3-0.5c-0.1,0-0.2,0.1-0.4,0.5c-0.2,0.6-0.4,1.1-0.6,1.6s-0.4,1.2-0.6,1.9c-0.1,0.6-0.3,0.9-0.6,0.9
		c-0.3,0-0.3-0.3-0.2-1.1c0.1-0.7,0.4-1.5,0.7-2.4c0.3-0.9,0.6-1.8,0.9-2.6c0.1-0.2,0.1-0.3,0.1-0.3c0-0.1-0.1-0.2-0.1-0.5
		c-0.7-1.8-0.3-2.7,1.3-2.8c0.1,0,0.2,0,0.1,0c0,0,0-0.1,0.1-0.2c0.7-1.4,1.5-3,2.4-4.6c0.9-1.6,1.8-3.3,2.8-4.9s1.9-3.3,2.9-4.9
		s1.9-3.1,2.9-4.5c0.9-1.4,1.8-2.6,2.6-3.7s1.5-2,2.1-2.7c0.2-0.2,0.4-0.4,0.7-0.5s0.6-0.2,0.8-0.2c0.3,0,0.5,0.1,0.6,0.2
		s0.1,0.3-0.1,0.6c-0.7,0.8-1.5,2-2.5,3.4s-2.1,3-3.3,4.7s-2.4,3.5-3.6,5.4c-1.2,1.9-2.3,3.6-3.4,5.4c-1.1,1.7-2,3.3-2.8,4.8
		c-0.8,1.4-1.4,2.6-1.7,3.5c-0.2,0.5-0.4,1.1-0.3,1.7c0,0.7,0.2,1.2,0.5,1.7c0.5,0.8,1.2,1.5,2.3,1.9c1,0.4,2.2,0.6,3.6,0.7
		c1.4,0.1,2.8-0.1,4.5-0.3c1.6-0.3,3.2-0.7,4.8-1.2s3.1-1.2,4.6-2s2.9-1.6,4.1-2.6c3.1-2.5,5.3-5.3,6.5-8.4c1.3-3.1,1.6-6.2,1-9.2
		s-2.1-5.8-4.6-8.4s-5.8-4.6-10.1-6C143.7,324.2,142,323.9,140,323.6z"/>
	<path class="st2" d="M181.6,347.2c-0.8,0.5-1.7,0.9-2.7,1c-0.6,0.1-1.5,0.2-2.7,0.2s-2.5,0.1-3.9,0.1s-2.8,0.1-4.2,0.1
		s-2.6,0-3.7,0c-0.4,0.5-0.8,1.1-1.2,1.8c-0.4,0.7-0.9,1.4-1.2,2.1c-0.4,0.7-0.7,1.5-1,2.3s-0.4,1.6-0.5,2.5c0,0.8,0,1.4,0.2,1.9
		s0.5,0.9,0.8,1.1c0.3,0.3,0.7,0.4,1.2,0.5c0.4,0.1,0.9,0.1,1.4,0.1c1.2-0.2,2.4-0.5,3.7-1s2.5-1,3.4-1.5c0.3-0.2,0.5-0.2,0.6-0.1
		s0.1,0.3-0.2,0.5c-0.4,0.3-0.8,0.6-1.4,0.9c-0.5,0.3-1.1,0.7-1.7,1c-0.6,0.3-1.3,0.6-2,0.9s-1.4,0.5-2,0.6c-0.5,0.1-1.1,0-1.7-0.2
		c-0.6-0.2-1.2-0.6-1.7-1c-0.5-0.5-1-1-1.3-1.6c-0.4-0.6-0.5-1.3-0.5-2c0.1-1.9,0.6-3.9,1.6-5.8s2.2-3.8,3.6-5.4
		c1.4-1.7,2.9-3.1,4.4-4.3s2.9-2.1,4.2-2.6c0.7-0.2,1.3-0.2,1.8,0.1c0.5,0.3,0.9,0.7,1.2,1.2s0.5,1.1,0.5,1.7
		c0.1,0.6-0.1,1.2-0.4,1.7c-0.5,1-1.5,1.8-2.9,2.5s-3,1.1-4.7,1.4c1,0,1.9,0,2.9,0s2,0,2.9,0s1.8,0,2.6-0.1c0.8,0,1.5-0.1,2-0.2
		c0.7-0.1,1.5-0.3,2.3-0.7c0.8-0.4,1.4-0.8,1.8-1.2c0.2-0.2,0.3-0.3,0.5-0.3c0.1,0.1,0.1,0.2-0.1,0.5
		C183,346.2,182.4,346.6,181.6,347.2z M175.4,341.8c0-0.4-0.1-0.8-0.3-1s-0.5-0.3-0.9-0.3s-0.9,0.2-1.4,0.5c-1.3,0.7-2.6,1.7-4,2.9
		c-1.3,1.2-2.6,2.5-3.8,3.8c0.9,0,1.9-0.1,2.9-0.3c1-0.2,1.9-0.5,2.8-0.9c0.9-0.4,1.7-0.9,2.4-1.4s1.3-1.1,1.7-1.7
		C175.2,342.7,175.4,342.2,175.4,341.8z"/>
	<path class="st2" d="M174.7,366.6c0,0.4-0.3,0.5-0.8,0.4c-1-0.1-2.1-0.2-3.4-0.2c-0.3,0.7-0.6,1.4-0.8,2.1
		c-0.3,0.7-0.6,1.4-0.8,2.1c-4.3,10.6-8.6,19.2-13.1,25.8c-4.5,6.5-9,11.1-13.5,13.6c-2.5,1.3-4.9,2-7.3,2c-3.7,0-6.9-1.5-9.6-4.6
		c-1.3-1.6-2.3-3.3-2.9-5.1c-0.7-1.8-1-3.8-1-6c0-6.3,2.8-11.9,8.4-16.7c2.9-2.5,6.1-4.7,9.7-6.5c3.6-1.9,7.6-3.4,11.9-4.5
		c3.1-0.8,6.1-1.5,9.1-1.9c3-0.5,6-0.7,9-0.8c0.3-0.6,0.6-1.2,0.9-1.7c0.3-0.5,0.5-1,0.8-1.5c0.2-0.5,0.5-1.1,0.8-1.6
		c0.3-0.6,0.6-1.2,1.1-1.9c0.8-1.3,1.5-2.7,2.3-4.1c0.7-1.4,1.5-2.8,2.3-4.2c-0.7-0.6-1-1.2-0.9-1.6c0.2-0.6,1.1-1.2,2.8-1.9
		c0.9-1.3,2-3,3.3-5.1c1.3-2,2.9-4.5,4.8-7.2c0.2-0.3,0.8-0.6,1.9-1.1c0.5-0.1,0.7-0.1,0.7,0.2c0,0.1-0.1,0.2-0.2,0.3
		s-0.3,0.2-0.5,0.5c-1.1,1.6-2.2,3.3-3.4,5.1c-1.2,1.9-2.5,4-3.8,6.3c1.4-0.6,2.7-1,3.9-1.2c1.1-0.2,2.2-0.4,3.1-0.4
		c2.5,0,3.8,1.2,3.8,3.5c0,1.8-0.8,3.9-2.4,6.1c4.3-1.1,6.8-1.7,7.4-1.7c0.1,0,0.3,0,0.4,0c0,0.1,0,0.1,0,0.2
		c-0.1,0.1-0.2,0.2-0.4,0.2c-1.2,0.4-2.6,0.8-4.1,1.2c-1.5,0.5-3.2,1-5,1.6c-3,2.8-6.7,4.4-11.3,4.9c-0.7,0.1-1.1-0.3-1.1-1
		c0-0.2,0.1-0.4,0.2-0.5c0.5-0.3,1.6-0.8,3.6-1.5c1.9-0.7,4.6-1.6,8-2.7c1.8-2,2.7-4.2,2.7-6.4c0-1.9-1.1-2.9-3.2-2.9
		c-0.8,0-1.7,0.2-2.8,0.5c-1,0.4-2.2,0.9-3.6,1.6c-0.7,1.1-1.4,2.2-2.1,3.2c-0.8,1-1.6,2.1-2.4,3.4c-0.9,1.3-1.8,2.8-2.8,4.6
		c-1,1.8-2,4-3.1,6.8c1.1,0,2.2,0.1,3.1,0.2C174.5,366.3,174.7,366.4,174.7,366.6z M168.3,369c0.3-0.7,0.6-1.4,1-2.2
		c-2.7,0-5.4,0.3-8.1,0.7c-2.7,0.4-5.5,1.1-8.4,1.9c-4.2,1.2-8,2.8-11.5,4.6s-6.7,4-9.5,6.5c-6.4,5.5-9.6,11.2-9.6,17.1
		c0,3.7,1.4,6.9,4.1,9.6c1.3,1.3,2.7,2.3,4.2,2.9s3.2,0.9,5,0.9c2.3,0,4.4-0.5,6.4-1.6c4-2.2,8-6.2,12.1-12.2c1.5-2.2,3-4.6,4.6-7.3
		c1.5-2.7,3-5.6,4.5-8.8c0.8-1.7,1.5-3.4,2.3-5.2c0.8-1.7,1.5-3.5,2.4-5.2C167.7,370.3,168,369.7,168.3,369z"/>
	<path class="st2" d="M214.1,349.1c-0.6,1.1-1.2,2.1-1.7,3.3s-1,2.2-1.5,3.3c-0.4,1.1-0.7,1.9-0.8,2.6c-0.1,0.6-0.1,1.1,0,1.4
		s0.2,0.5,0.4,0.5c0.2,0.1,0.4,0,0.7,0c0.3-0.1,0.5-0.1,0.8-0.2c0.2-0.1,0.5-0.2,0.9-0.3c0.4-0.2,0.6-0.3,0.8-0.5
		c0.6-0.4,0.9-0.4,0.9-0.1c0.1,0.3-0.1,0.6-0.6,1c-0.4,0.4-0.8,0.8-1.3,1.1c-0.5,0.3-1,0.6-1.5,0.8c-0.2,0.1-0.5,0-0.8-0.1
		s-0.6-0.3-0.9-0.6s-0.5-0.6-0.7-0.9s-0.3-0.7-0.3-1c0-0.7,0.1-1.4,0.2-2.1c0.2-0.7,0.4-1.5,0.6-2.2c0.2-0.7,0.5-1.4,0.8-2.1
		s0.6-1.3,0.8-1.9c0.2-0.5,0.2-1,0-1.3s-0.6-0.2-1.3,0.5c-0.8,0.8-2,1.9-3.3,3.2c-1.4,1.3-2.7,2.6-4.1,3.8c-1.4,1.3-2.7,2.4-3.8,3.3
		c-1.2,1-2.1,1.5-2.6,1.7c-1,0.3-1.7,0.2-2.3-0.5c-0.6-0.6-0.9-1.4-0.8-2.3c0.1-0.8,0.3-1.7,0.7-2.8c0.4-1.1,0.8-2.1,1.4-3.3
		s1.2-2.2,1.9-3.4s1.4-2.2,2.1-3.3c0.7-1,1.4-2,2-2.8s1.2-1.5,1.6-2c0.2-0.2,0.4-0.4,0.7-0.5s0.6-0.1,0.8,0s0.3,0.2,0.4,0.5
		c0,0.2-0.1,0.6-0.4,1c-0.8,1-1.7,2.1-2.6,3.4c-0.9,1.3-1.8,2.6-2.6,4c-0.8,1.3-1.5,2.7-2.2,3.9c-0.7,1.3-1.1,2.4-1.4,3.3
		c-0.4,1.4-0.4,2.4,0,2.8s1.1,0.4,2-0.1c1.4-0.8,2.8-2,4.4-3.4c1.5-1.4,3.1-2.9,4.6-4.4s2.9-3,4.3-4.5c1.4-1.4,2.6-2.6,3.7-3.6
		c0.3-0.3,0.6-0.4,0.8-0.3s0.4,0.3,0.6,0.6c0.1,0.3,0.2,0.6,0.2,1c0,0.3,0,0.6-0.1,0.8C215.3,347.1,214.7,348,214.1,349.1z"/>
	<path class="st2" d="M227.5,356.9c-0.9,0.7-1.8,1.4-2.9,2.1c-1,0.7-2.1,1.4-3.2,2c-1.1,0.6-2,1.1-2.8,1.5c-0.2,0.1-0.5,0.1-1,0
		c-0.4-0.1-0.9-0.2-1.3-0.5c-0.4-0.3-0.8-0.6-1.2-1.1c-0.3-0.4-0.5-1-0.5-1.6s0.1-1.3,0.4-2.2c0.3-0.9,0.6-1.9,1.1-2.9
		c0.4-1,0.9-2,1.4-3.1c0.5-1,1-2,1.4-2.9s0.8-1.6,1.1-2.2s0.4-1,0.5-1.1c0.1-0.4,0.3-0.7,0.6-0.9c0.4-0.2,0.7-0.2,1-0.1
		s0.5,0.4,0.7,0.7c0.1,0.4,0.1,0.9-0.3,1.5c-1.2,2.3-2.1,4-2.8,5.2s-1.1,2.1-1.4,2.7c-0.3,0.6-0.5,0.9-0.5,1s-0.1,0.2-0.1,0.3
		c0,0.1-0.1,0.3-0.2,0.6c-0.1,0.3-0.4,0.9-0.8,1.7c-0.4,0.9-0.6,1.6-0.7,2c0,0.5,0.1,0.8,0.3,1s0.6,0.3,0.9,0.3s0.7-0.1,1.1-0.1
		c0.7-0.1,1.5-0.5,2.5-1s2-1.1,3.1-1.8c1.1-0.7,2-1.3,3-2c0.9-0.7,1.6-1.2,2.1-1.7c0.3-0.3,0.5-0.5,0.7-0.5c0.1,0,0.2,0,0.2,0.1
		s0,0.3-0.1,0.5s-0.3,0.4-0.5,0.6C229.1,355.6,228.4,356.2,227.5,356.9z M224.7,340.9c-0.8,0.7-1.4,1.1-2,1
		c-0.8-0.1-1.2-0.4-1.2-0.9s0.4-1.1,1.2-2c0.8-0.8,1.5-1.3,2-1.4c0.4-0.1,0.8,0,1.1,0.3s0.5,0.6,0.3,0.9
		C226,339.4,225.5,340.1,224.7,340.9z"/>
	<path class="st2" d="M242.6,352.8c2.7-0.8,5.4-1.5,8-2l0.1,0.1c-2.5,0.5-5,1.3-7.6,2.3s-5.3,2.4-8.1,4c0.5,0.6,0.8,1.1,1,1.5
		s0.3,0.7,0.3,1c0,1-1.2,2-3.5,3c-2,0.9-3.6,1.3-4.8,1.3c-0.4,0-0.8-0.1-1.1-0.2c-0.5,0.1-0.9,0.1-1.2,0.2s-0.5,0.1-0.7,0
		c-0.5,0-0.6-0.3-0.3-0.7c0.6-0.7,3-2.6,7.2-5.5l-1.7-2.3c-0.4-0.5-0.7-1-0.9-1.4c-0.2-0.5-0.3-0.9-0.4-1.4c-0.3-2.4,2.1-5,7.2-8
		c2.5-1.5,4.9-2.6,7.2-3.4c2.2-0.7,4.4-1.1,6.3-1c0.2,0,0.4,0.1,0.6,0.3c0.1,0.3,0.1,0.5,0,0.7c-0.2,0.4-0.6,0.7-1.2,1.1
		c-0.5,0.4-0.9,0.5-1.2,0.4c-0.8-0.3-1.5-0.5-2.1-0.6s-1-0.2-1.4-0.2c-0.2,0-0.4,0-0.6,0c-0.2,0-0.4,0-0.6,0.1c-2,0.5-4.3,1.7-7,3.6
		c-3.4,2.3-4.9,4.3-4.7,6c0.1,0.7,0.5,1.6,1.2,2.7s1.3,1.7,1.8,2C237.2,354.9,239.9,353.7,242.6,352.8z M227.5,363.4
		c0.6,0.1,1.7-0.1,3.2-0.6c0.7-0.3,1.3-0.5,1.8-0.7s0.8-0.5,1-0.7c0.1-0.2,0.2-0.4,0.2-0.6c0-0.6-0.4-1.2-1.2-2
		c-0.6,0.4-1.4,1-2.6,1.8c-0.7,0.5-1.3,0.9-1.7,1.3s-0.7,0.7-0.9,1C227,363.2,227,363.4,227.5,363.4z"/>
	<path class="st2" d="M294.2,362.2c-5.1,0-8.4,0.1-10.2,0.3c-0.6,0.1-1-0.1-1-0.5c0-0.7,0.3-1.1,1-1.2s1.6-0.2,2.8-0.3
		c1.1-0.1,2.6-0.2,4.3-0.3c1.3-2.4,3.1-5.3,5.3-8.7c2.2-3.3,4.8-7.2,7.8-11.5c0.1-0.2,0.2-0.4,0.2-0.6s-0.1-0.4-0.4-0.4
		c-0.1,0-0.3,0-0.5,0.1c-1.4,0.6-2.9,1.1-4.3,1.5c-1.4,0.5-2.8,0.9-4.2,1.4c-0.4,0.1-0.7,0.2-0.8,0.2c-0.4,0-0.5-0.1-0.4-0.3
		c0.1-0.2,0.4-0.4,1-0.6c3.7-1.4,6.9-2.6,9.5-3.8c2.6-1.1,4.7-2.2,6.3-3.1c0.2-0.1,0.4-0.2,0.6-0.2c0.4,0,0.6,0.2,0.6,0.6
		s-0.1,0.6-0.4,0.7c-0.3,0.2-0.7,0.4-1.1,0.7c-0.4,0.2-0.9,0.6-1.5,1c-0.1,0.1-0.2,0.3-0.3,0.6c-0.1,0.3-0.1,0.6-0.2,1
		c-0.6,0.5-1.6,1.4-2.8,2.8c-1.2,1.4-2.7,3.3-4.5,5.6c-1.8,2.4-3.3,4.4-4.5,6.2c-1.2,1.8-2.1,3.3-2.7,4.5c-0.1,0.2-0.1,0.4-0.2,0.6
		s-0.1,0.3-0.1,0.5c0,0.7,0.7,1.1,2.1,1.3c3.1,0.5,5.2,0.7,6.3,0.6c0.7-0.1,1.1,0.1,1.1,0.4c0,0.4-0.5,0.6-1.5,0.6s-2.8,0.1-5.4,0.1
		h-1.9V362.2z"/>
	<path class="st2" d="M308.2,367.8c-0.2,0.2-0.5,0.3-0.8,0.3c-0.6,0-0.8-0.4-0.7-1.2c0.4-2.8,8.3-12.4,23.6-28.6
		c0.1-0.1,0.2-0.2,0.2-0.4c0-0.3-0.3-0.5-1-0.6c-1.2-0.2-3.5-0.3-6.9-0.3c-3,0-4.9,0-5.7,0.1c-0.3,0-0.7,0.1-1.2,0.3
		c-0.5,0.2-1,0.4-1.7,0.6c-0.2,0.2-0.4,0.3-0.6,0.3c-0.3,0-0.4-0.1-0.4-0.4c0-0.4,0.5-0.9,1.6-1.4c0.9-0.4,1.6-0.7,2.2-0.8
		c1.8,0,4-0.1,6.5-0.1c2.5-0.1,5.3-0.1,8.5-0.2c0.2,0,0.5,0,1.1-0.1c0.1-0.1,0.3-0.2,0.6-0.4s0.6-0.3,1-0.5c0.7-0.1,1.1,0.3,1.1,1.3
		c0,0.6-0.2,1-0.6,1.4l-15.7,15.4c-3.9,3.9-6.7,7-8.4,9.5c-1.7,2.5-2.5,4.2-2.3,5.1C308.6,367.3,308.5,367.5,308.2,367.8z"/>
	<path class="st2" d="M336.3,362.2c-5.1,0-8.4,0.1-10.2,0.3c-0.6,0.1-1-0.1-1-0.5c0-0.7,0.3-1.1,1-1.2s1.6-0.2,2.8-0.3
		c1.1-0.1,2.6-0.2,4.3-0.3c1.3-2.4,3.1-5.3,5.3-8.7c2.2-3.3,4.8-7.2,7.8-11.5c0.1-0.2,0.2-0.4,0.2-0.6s-0.1-0.4-0.4-0.4
		c-0.1,0-0.3,0-0.5,0.1c-1.4,0.6-2.9,1.1-4.3,1.5c-1.4,0.5-2.8,0.9-4.2,1.4c-0.4,0.1-0.7,0.2-0.8,0.2c-0.4,0-0.5-0.1-0.4-0.3
		c0.1-0.2,0.4-0.4,1-0.6c3.7-1.4,6.9-2.6,9.5-3.8c2.6-1.1,4.7-2.2,6.3-3.1c0.2-0.1,0.4-0.2,0.6-0.2c0.4,0,0.6,0.2,0.6,0.6
		s-0.1,0.6-0.4,0.7c-0.3,0.2-0.7,0.4-1.1,0.7s-0.9,0.6-1.5,1c-0.1,0.1-0.2,0.3-0.3,0.6c-0.1,0.3-0.1,0.6-0.2,1
		c-0.6,0.5-1.6,1.4-2.8,2.8c-1.2,1.4-2.7,3.3-4.5,5.6c-1.8,2.4-3.3,4.4-4.5,6.2c-1.2,1.8-2.1,3.3-2.7,4.5c-0.1,0.2-0.1,0.4-0.2,0.6
		s-0.1,0.3-0.1,0.5c0,0.7,0.7,1.1,2.1,1.3c3.1,0.5,5.2,0.7,6.3,0.6c0.7-0.1,1.1,0.1,1.1,0.4c0,0.4-0.5,0.6-1.5,0.6s-2.8,0.1-5.4,0.1
		h-1.9V362.2z"/>
	<path class="st2" d="M356.9,367.5c-0.4,0-0.5-0.3-0.4-0.8c0.1-1.3,0.6-3,1.4-4.8s2.1-4.1,3.7-6.7c-1.1-0.1-3.1-0.2-6-0.2
		c-1.9,0-3.4,0-4.7,0c-1.2,0.1-2.2,0.1-2.9,0.2c-0.4,0.1-0.8,0.4-1.2,0.9c-0.4,0.5-0.7,0.7-0.8,0.7c-0.3,0-0.4-0.3-0.4-0.8
		c0-0.4,0.1-0.7,0.3-1c0.1-0.2,0.5-0.4,1.1-0.7c0.2-0.1,0.3-0.1,0.5-0.2s0.3-0.2,0.6-0.3c1-1.1,2.2-2.4,3.9-3.9
		c1.6-1.5,3.6-3.2,5.9-5.1s4.4-3.5,6.2-4.9c1.8-1.4,3.3-2.4,4.7-3.3c0.1,0,0.2-0.1,0.3-0.1c0.4,0,0.6,0.2,0.6,0.6
		c0,0.2-0.1,0.4-0.4,0.6c-1.3,0.8-2.9,1.9-4.8,3.3s-4.2,3.1-6.7,5.2c-4.9,3.9-7.8,6.3-8.6,7.5c1.2-0.2,2.7-0.3,4.7-0.3
		c1.5,0,3.3,0.1,5.4,0.2c1,0.1,1.8,0.1,2.3,0.2c0.5,0,0.8,0.1,0.8,0.1c1.7-2.3,3.6-5,5.8-7.9c2.2-2.9,4.6-6.2,7.2-9.8
		c0.6-0.8,1.7-1.2,3.1-1.2c0.4,0,0.6,0.1,0.6,0.3c0,0.1,0,0.1-0.1,0.2c-1,1.2-2.2,2.6-3.5,4.3c-1.3,1.7-2.9,3.6-4.6,5.8
		c-1.7,2.2-3.1,4-4.1,5.5c-1,1.4-1.8,2.4-2.1,3.1c3,0.2,4.7,0.2,5.2,0.1c0.2,0,0.3,0,0.3,0.1c0,0.2-0.2,0.4-0.6,0.7
		c-0.4,0.3-0.7,0.5-1.1,0.5c-1.2,0-2.2,0-2.9,0c-0.8,0-1.3,0-1.7-0.1c-1,1.4-1.7,2.5-2.4,3.3c-0.6,0.8-1,1.4-1.2,1.7
		c-1.8,2.8-2.8,5-3,6.6C357.3,367.3,357.2,367.5,356.9,367.5z"/>
</g>
<g>
	<path class="st2" d="M104,399.6v-20h2.3v17.9h8.8v2.1H104z"/>
	<path class="st2" d="M120,379.6l0.2,0.3c-0.2,0.9-0.6,2-1,3.2c-0.4,1.2-0.9,2.3-1.4,3.4h-1.7c0.6-2.6,1.1-4.9,1.4-6.8H120z"/>
	<path class="st2" d="M133.2,399.6v-9.7c0-1.2-0.3-2.1-0.8-2.7c-0.6-0.6-1.4-0.9-2.6-0.9c-1.6,0-2.7,0.4-3.5,1.3s-1.1,2.3-1.1,4.2
		v7.8h-2.3v-21.3h2.3v6.4c0,0.8,0,1.4-0.1,1.9h0.1c0.4-0.7,1.1-1.3,1.9-1.7c0.8-0.4,1.8-0.6,2.8-0.6c1.8,0,3.2,0.4,4.1,1.3
		s1.4,2.3,1.4,4.1v9.8H133.2z"/>
	<path class="st2" d="M146.4,399.8c-2.2,0-4-0.7-5.2-2c-1.3-1.3-1.9-3.2-1.9-5.6c0-2.4,0.6-4.3,1.8-5.8s2.8-2.1,4.8-2.1
		c1.9,0,3.4,0.6,4.5,1.9s1.6,2.9,1.6,4.9v1.4h-10.3c0,1.8,0.5,3.1,1.3,4c0.8,0.9,2,1.4,3.6,1.4c1.6,0,3.2-0.3,4.8-1v2
		c-0.8,0.3-1.6,0.6-2.3,0.7C148.3,399.7,147.4,399.8,146.4,399.8z M145.8,386.2c-1.2,0-2.2,0.4-2.9,1.2c-0.7,0.8-1.1,1.9-1.3,3.3
		h7.8c0-1.4-0.3-2.5-1-3.3C147.9,386.6,147,386.2,145.8,386.2z M144.1,382.2c0.4-0.6,0.9-1.2,1.4-2.1s0.9-1.5,1.2-2.1h2.8v0.3
		c-0.4,0.6-1,1.3-1.8,2.2s-1.5,1.5-2.1,2h-1.5V382.2z"/>
	<path class="st2" d="M162.6,384.3c0.7,0,1.3,0.1,1.8,0.2l-0.3,2.1c-0.6-0.1-1.2-0.2-1.6-0.2c-1.2,0-2.2,0.5-3.1,1.5
		s-1.3,2.2-1.3,3.7v8h-2.3v-15h1.9l0.3,2.8h0.1c0.6-1,1.2-1.7,2-2.3C160.8,384.6,161.7,384.3,162.6,384.3z"/>
	<path class="st2" d="M167,380.5c0-0.5,0.1-0.9,0.4-1.1c0.3-0.2,0.6-0.4,1-0.4c0.4,0,0.7,0.1,0.9,0.4c0.3,0.2,0.4,0.6,0.4,1.1
		s-0.1,0.9-0.4,1.1c-0.3,0.3-0.6,0.4-0.9,0.4c-0.4,0-0.7-0.1-1-0.4C167.2,381.4,167,381,167,380.5z M169.5,399.6h-2.3v-15h2.3V399.6
		z"/>
	<path class="st2" d="M179.2,398c0.4,0,0.8,0,1.2-0.1c0.4-0.1,0.7-0.1,0.9-0.2v1.7c-0.2,0.1-0.6,0.2-1.1,0.3s-0.9,0.1-1.3,0.1
		c-2.9,0-4.3-1.5-4.3-4.6v-8.9h-2.1v-1.1l2.1-0.9l1-3.2h1.3v3.5h4.3v1.8h-4.3v8.8c0,0.9,0.2,1.6,0.6,2.1
		C177.8,397.7,178.4,398,179.2,398z"/>
	<path class="st2" d="M193.4,399.6l-0.5-2.1h-0.1c-0.7,0.9-1.5,1.6-2.2,1.9c-0.7,0.3-1.7,0.5-2.8,0.5c-1.5,0-2.7-0.4-3.5-1.1
		c-0.8-0.8-1.3-1.9-1.3-3.3c0-3,2.4-4.6,7.3-4.8l2.5-0.1v-0.9c0-1.2-0.3-2-0.8-2.6s-1.3-0.8-2.4-0.8c-1.2,0-2.7,0.4-4.2,1.1
		l-0.7-1.7c0.7-0.4,1.5-0.7,2.4-0.9c0.9-0.2,1.8-0.3,2.6-0.3c1.8,0,3.1,0.4,4,1.2s1.3,2.1,1.3,3.8v10.2H193.4z M188.3,398
		c1.4,0,2.5-0.4,3.3-1.2s1.2-1.9,1.2-3.3v-1.4l-2.3,0.1c-1.8,0.1-3.1,0.3-3.9,0.8c-0.8,0.5-1.2,1.3-1.2,2.3c0,0.8,0.2,1.4,0.7,1.9
		C186.7,397.7,187.4,398,188.3,398z"/>
	<path class="st2" d="M212,384.6v1.4l-2.8,0.3c0.3,0.3,0.5,0.7,0.7,1.3c0.2,0.5,0.3,1.1,0.3,1.7c0,1.5-0.5,2.6-1.5,3.5
		c-1,0.9-2.4,1.3-4.1,1.3c-0.4,0-0.9,0-1.3-0.1c-1,0.5-1.4,1.2-1.4,1.9c0,0.4,0.2,0.7,0.5,0.9c0.3,0.2,0.9,0.3,1.7,0.3h2.7
		c1.6,0,2.9,0.3,3.7,1c0.9,0.7,1.3,1.7,1.3,3c0,1.7-0.7,2.9-2,3.8c-1.3,0.9-3.3,1.3-5.8,1.3c-2,0-3.5-0.4-4.5-1.1
		c-1.1-0.7-1.6-1.8-1.6-3.1c0-0.9,0.3-1.7,0.9-2.4c0.6-0.7,1.4-1.1,2.5-1.4c-0.4-0.2-0.7-0.4-1-0.8s-0.4-0.8-0.4-1.3
		c0-0.5,0.1-1,0.4-1.4c0.3-0.4,0.8-0.8,1.4-1.2c-0.8-0.3-1.4-0.9-1.9-1.6c-0.5-0.8-0.7-1.6-0.7-2.6c0-1.6,0.5-2.9,1.5-3.8
		s2.4-1.3,4.2-1.3c0.8,0,1.5,0.1,2.1,0.3H212z M200.1,402.1c0,0.8,0.3,1.4,1,1.8s1.7,0.6,2.9,0.6c1.9,0,3.3-0.3,4.2-0.9
		s1.4-1.3,1.4-2.3c0-0.8-0.3-1.4-0.8-1.7c-0.5-0.3-1.4-0.5-2.8-0.5h-2.7c-1,0-1.8,0.2-2.4,0.7S200.1,401.1,200.1,402.1z
		 M201.3,389.4c0,1,0.3,1.8,0.9,2.4c0.6,0.5,1.4,0.8,2.5,0.8c2.2,0,3.3-1.1,3.3-3.2c0-2.3-1.1-3.4-3.4-3.4c-1.1,0-1.9,0.3-2.5,0.9
		S201.3,388.2,201.3,389.4z"/>
	<path class="st2" d="M221.4,399.8c-2.2,0-4-0.7-5.2-2c-1.3-1.3-1.9-3.2-1.9-5.6c0-2.4,0.6-4.3,1.8-5.8s2.8-2.1,4.8-2.1
		c1.9,0,3.4,0.6,4.5,1.9s1.6,2.9,1.6,4.9v1.4h-10.3c0,1.8,0.5,3.1,1.3,4c0.8,0.9,2,1.4,3.6,1.4c1.6,0,3.2-0.3,4.8-1v2
		c-0.8,0.3-1.6,0.6-2.3,0.7C223.3,399.7,222.5,399.8,221.4,399.8z M220.8,386.2c-1.2,0-2.2,0.4-2.9,1.2c-0.7,0.8-1.1,1.9-1.3,3.3
		h7.8c0-1.4-0.3-2.5-1-3.3C222.9,386.6,222,386.2,220.8,386.2z"/>
	<path class="st2" d="M248.3,397.5h-0.1c-1,1.5-2.6,2.3-4.7,2.3c-2,0-3.5-0.7-4.6-2c-1.1-1.3-1.6-3.2-1.6-5.7s0.5-4.4,1.6-5.8
		s2.6-2.1,4.6-2.1c2,0,3.6,0.7,4.7,2.2h0.2l-0.1-1.1l-0.1-1.1v-6.1h2.3v21.3h-1.8L248.3,397.5z M243.8,397.9c1.5,0,2.7-0.4,3.4-1.3
		s1-2.2,1-4.1v-0.5c0-2.1-0.4-3.6-1.1-4.5c-0.7-0.9-1.8-1.4-3.4-1.4c-1.3,0-2.3,0.5-3.1,1.6c-0.7,1-1.1,2.5-1.1,4.4
		c0,1.9,0.4,3.4,1.1,4.3C241.4,397.4,242.4,397.9,243.8,397.9z"/>
	<path class="st2" d="M261.6,399.8c-2.2,0-4-0.7-5.2-2c-1.3-1.3-1.9-3.2-1.9-5.6c0-2.4,0.6-4.3,1.8-5.8s2.8-2.1,4.8-2.1
		c1.9,0,3.4,0.6,4.5,1.9s1.6,2.9,1.6,4.9v1.4h-10.3c0,1.8,0.5,3.1,1.3,4c0.8,0.9,2,1.4,3.6,1.4c1.6,0,3.2-0.3,4.8-1v2
		c-0.8,0.3-1.6,0.6-2.3,0.7C263.5,399.7,262.6,399.8,261.6,399.8z M261,386.2c-1.2,0-2.2,0.4-2.9,1.2c-0.7,0.8-1.1,1.9-1.3,3.3h7.8
		c0-1.4-0.3-2.5-1-3.3C263.1,386.6,262.2,386.2,261,386.2z"/>
	<path class="st2" d="M285.2,399.8c-1,0-1.9-0.2-2.7-0.5s-1.5-0.9-2-1.7h-0.2c0.1,0.9,0.2,1.7,0.2,2.5v6.2h-2.3v-21.7h1.8l0.3,2.1
		h0.1c0.6-0.8,1.3-1.4,2-1.8c0.8-0.4,1.7-0.5,2.7-0.5c2,0,3.5,0.7,4.6,2s1.6,3.3,1.6,5.7c0,2.5-0.5,4.4-1.6,5.7
		C288.7,399.1,287.2,399.8,285.2,399.8z M284.9,386.2c-1.5,0-2.6,0.4-3.3,1.3s-1,2.2-1.1,4v0.5c0,2.1,0.4,3.6,1.1,4.5
		c0.7,0.9,1.8,1.4,3.4,1.4c1.3,0,2.3-0.5,3-1.6c0.7-1,1.1-2.5,1.1-4.3c0-1.9-0.4-3.3-1.1-4.3C287.2,386.7,286.2,386.2,284.9,386.2z"
		/>
	<path class="st2" d="M297.7,399.6h-2.3v-21.3h2.3V399.6z"/>
	<path class="st2" d="M304.6,384.6v9.7c0,1.2,0.3,2.1,0.8,2.7c0.6,0.6,1.4,0.9,2.6,0.9c1.6,0,2.7-0.4,3.4-1.3s1.1-2.3,1.1-4.2v-7.9
		h2.3v15H313l-0.3-2h-0.1c-0.5,0.7-1.1,1.3-1.9,1.7c-0.8,0.4-1.8,0.6-2.8,0.6c-1.8,0-3.2-0.4-4.1-1.3c-0.9-0.9-1.4-2.3-1.4-4.2v-9.8
		H304.6z"/>
	<path class="st2" d="M329.3,395.5c0,1.4-0.5,2.5-1.6,3.2s-2.5,1.1-4.4,1.1c-2,0-3.5-0.3-4.6-0.9v-2.1c0.7,0.4,1.5,0.7,2.3,0.9
		c0.8,0.2,1.6,0.3,2.4,0.3c1.2,0,2.1-0.2,2.7-0.6c0.6-0.4,1-1,1-1.7c0-0.6-0.3-1.1-0.8-1.5s-1.5-0.9-3-1.5c-1.4-0.5-2.4-1-3-1.4
		s-1-0.8-1.3-1.3s-0.4-1.1-0.4-1.8c0-1.2,0.5-2.2,1.5-2.9c1-0.7,2.4-1.1,4.1-1.1c1.6,0,3.2,0.3,4.7,1l-0.8,1.8
		c-1.5-0.6-2.9-0.9-4.1-0.9c-1.1,0-1.9,0.2-2.4,0.5s-0.8,0.8-0.8,1.4c0,0.4,0.1,0.7,0.3,1s0.5,0.6,1,0.8c0.5,0.3,1.3,0.6,2.6,1.1
		c1.8,0.6,3,1.3,3.6,2C329,393.6,329.3,394.5,329.3,395.5z"/>
	<path class="st2" d="M350.5,397.5h-0.1c-1,1.5-2.6,2.3-4.7,2.3c-2,0-3.5-0.7-4.6-2c-1.1-1.3-1.6-3.2-1.6-5.7s0.5-4.4,1.6-5.8
		s2.6-2.1,4.6-2.1c2,0,3.6,0.7,4.7,2.2h0.2l-0.1-1.1l-0.1-1.1v-6.1h2.3v21.3h-1.8L350.5,397.5z M346,397.9c1.5,0,2.7-0.4,3.4-1.3
		s1-2.2,1-4.1v-0.5c0-2.1-0.4-3.6-1.1-4.5c-0.7-0.9-1.8-1.4-3.4-1.4c-1.3,0-2.3,0.5-3.1,1.6c-0.7,1-1.1,2.5-1.1,4.4
		c0,1.9,0.4,3.4,1.1,4.3C343.6,397.4,344.6,397.9,346,397.9z"/>
	<path class="st2" d="M363.8,399.8c-2.2,0-4-0.7-5.2-2c-1.3-1.3-1.9-3.2-1.9-5.6c0-2.4,0.6-4.3,1.8-5.8s2.8-2.1,4.8-2.1
		c1.9,0,3.4,0.6,4.5,1.9s1.6,2.9,1.6,4.9v1.4H359c0,1.8,0.5,3.1,1.3,4c0.8,0.9,2,1.4,3.6,1.4c1.6,0,3.2-0.3,4.8-1v2
		c-0.8,0.3-1.6,0.6-2.3,0.7C365.7,399.7,364.8,399.8,363.8,399.8z M363.2,386.2c-1.2,0-2.2,0.4-2.9,1.2c-0.7,0.8-1.1,1.9-1.3,3.3
		h7.8c0-1.4-0.3-2.5-1-3.3C365.3,386.6,364.4,386.2,363.2,386.2z"/>
	<path class="st2" d="M391.8,384.3c0,1.3-0.4,2.3-1.1,3.1c-0.7,0.8-1.7,1.4-3,1.6v0.1c1.6,0.2,2.8,0.7,3.6,1.5
		c0.8,0.8,1.2,1.9,1.2,3.2c0,1.9-0.7,3.4-2,4.4c-1.3,1-3.2,1.5-5.6,1.5c-1.1,0-2-0.1-2.9-0.2c-0.9-0.2-1.7-0.4-2.6-0.8v-2.2
		c0.9,0.4,1.8,0.8,2.8,1c1,0.2,1.9,0.3,2.8,0.3c3.5,0,5.2-1.4,5.2-4.1c0-2.4-1.9-3.6-5.7-3.6h-2v-2h2c1.6,0,2.8-0.3,3.7-1
		c0.9-0.7,1.4-1.6,1.4-2.9c0-1-0.3-1.7-1-2.3s-1.6-0.8-2.7-0.8c-0.9,0-1.7,0.1-2.5,0.4c-0.8,0.2-1.7,0.7-2.7,1.3l-1.1-1.5
		c0.8-0.6,1.8-1.2,2.8-1.5c1.1-0.4,2.2-0.6,3.4-0.6c1.9,0,3.5,0.4,4.5,1.3C391.2,381.5,391.8,382.7,391.8,384.3z"/>
	<path class="st2" d="M408.7,389.5c0,3.5-0.5,6-1.6,7.7c-1.1,1.7-2.8,2.6-5,2.6c-2.2,0-3.8-0.9-4.9-2.6s-1.7-4.3-1.7-7.7
		c0-3.5,0.5-6.1,1.6-7.8c1.1-1.7,2.7-2.5,5-2.5c2.2,0,3.8,0.9,4.9,2.6C408.1,383.6,408.7,386.2,408.7,389.5z M397.7,389.5
		c0,2.9,0.3,5,1,6.4s1.8,2,3.3,2c1.5,0,2.6-0.7,3.3-2c0.7-1.3,1-3.5,1-6.3s-0.3-5-1-6.3c-0.7-1.3-1.8-2-3.3-2c-1.5,0-2.6,0.7-3.3,2
		S397.7,386.6,397.7,389.5z"/>
	<path class="st2" d="M424.7,389.5c0,3.5-0.5,6-1.6,7.7c-1.1,1.7-2.8,2.6-5,2.6c-2.2,0-3.8-0.9-4.9-2.6s-1.7-4.3-1.7-7.7
		c0-3.5,0.5-6.1,1.6-7.8c1.1-1.7,2.7-2.5,5-2.5c2.2,0,3.8,0.9,4.9,2.6C424.1,383.6,424.7,386.2,424.7,389.5z M413.7,389.5
		c0,2.9,0.3,5,1,6.4s1.8,2,3.3,2c1.5,0,2.6-0.7,3.3-2c0.7-1.3,1-3.5,1-6.3s-0.3-5-1-6.3c-0.7-1.3-1.8-2-3.3-2c-1.5,0-2.6,0.7-3.3,2
		S413.7,386.6,413.7,389.5z"/>
	<path class="st2" d="M439,399.6l-5.7-15h2.4l3.2,8.9c0.7,2.1,1.2,3.4,1.3,4h0.1c0.1-0.5,0.4-1.5,1-3s1.7-4.8,3.6-9.9h2.4l-5.7,15
		H439z"/>
	<path class="st2" d="M456.1,399.8c-2.2,0-4-0.7-5.2-2c-1.3-1.3-1.9-3.2-1.9-5.6c0-2.4,0.6-4.3,1.8-5.8s2.8-2.1,4.8-2.1
		c1.9,0,3.4,0.6,4.5,1.9s1.6,2.9,1.6,4.9v1.4h-10.3c0,1.8,0.5,3.1,1.3,4c0.8,0.9,2,1.4,3.6,1.4c1.6,0,3.2-0.3,4.8-1v2
		c-0.8,0.3-1.6,0.6-2.3,0.7C458,399.7,457.1,399.8,456.1,399.8z M455.5,386.2c-1.2,0-2.2,0.4-2.9,1.2c-0.7,0.8-1.1,1.9-1.3,3.3h7.8
		c0-1.4-0.3-2.5-1-3.3C457.6,386.6,456.7,386.2,455.5,386.2z"/>
	<path class="st2" d="M475.7,399.6v-9.7c0-1.2-0.3-2.1-0.8-2.7c-0.6-0.6-1.4-0.9-2.6-0.9c-1.6,0-2.7,0.4-3.4,1.3
		c-0.7,0.8-1.1,2.2-1.1,4.2v7.9h-2.3v-15h1.8l0.4,2.1h0.1c0.5-0.7,1.1-1.3,2-1.7c0.8-0.4,1.8-0.6,2.8-0.6c1.8,0,3.2,0.4,4.1,1.3
		c0.9,0.9,1.4,2.3,1.4,4.2v9.8H475.7z"/>
	<path class="st2" d="M492.9,397.5h-0.1c-1,1.5-2.6,2.3-4.7,2.3c-2,0-3.5-0.7-4.6-2c-1.1-1.3-1.6-3.2-1.6-5.7s0.5-4.4,1.6-5.8
		s2.6-2.1,4.6-2.1c2,0,3.6,0.7,4.7,2.2h0.2l-0.1-1.1l-0.1-1.1v-6.1h2.3v21.3h-1.8L492.9,397.5z M488.3,397.9c1.6,0,2.7-0.4,3.4-1.3
		s1-2.2,1-4.1v-0.5c0-2.1-0.4-3.6-1.1-4.5c-0.7-0.9-1.8-1.4-3.4-1.4c-1.3,0-2.3,0.5-3.1,1.6c-0.7,1-1.1,2.5-1.1,4.4
		c0,1.9,0.4,3.4,1.1,4.3C485.9,397.4,487,397.9,488.3,397.9z"/>
	<path class="st2" d="M509,399.6l-0.5-2.1h-0.1c-0.7,0.9-1.5,1.6-2.2,1.9c-0.7,0.3-1.7,0.5-2.8,0.5c-1.5,0-2.7-0.4-3.5-1.1
		c-0.8-0.8-1.3-1.9-1.3-3.3c0-3,2.4-4.6,7.3-4.8l2.5-0.1v-0.9c0-1.2-0.3-2-0.8-2.6s-1.3-0.8-2.4-0.8c-1.2,0-2.7,0.4-4.2,1.1
		l-0.7-1.7c0.7-0.4,1.5-0.7,2.4-0.9c0.9-0.2,1.8-0.3,2.6-0.3c1.8,0,3.1,0.4,4,1.2s1.3,2.1,1.3,3.8v10.2H509z M503.9,398
		c1.4,0,2.5-0.4,3.3-1.2s1.2-1.9,1.2-3.3v-1.4l-2.3,0.1c-1.8,0.1-3.1,0.3-3.9,0.8c-0.8,0.5-1.2,1.3-1.2,2.3c0,0.8,0.2,1.4,0.7,1.9
		C502.3,397.7,503,398,503.9,398z"/>
	<path class="st2" d="M525.6,399.6v-9.7c0-1.2-0.3-2.1-0.8-2.7c-0.6-0.6-1.4-0.9-2.6-0.9c-1.6,0-2.7,0.4-3.4,1.3
		c-0.7,0.8-1.1,2.2-1.1,4.2v7.9h-2.3v-15h1.8l0.4,2.1h0.1c0.5-0.7,1.1-1.3,2-1.7c0.8-0.4,1.8-0.6,2.8-0.6c1.8,0,3.2,0.4,4.1,1.3
		c0.9,0.9,1.4,2.3,1.4,4.2v9.8H525.6z"/>
	<path class="st2" d="M544.8,384.6v1.4l-2.8,0.3c0.3,0.3,0.5,0.7,0.7,1.3c0.2,0.5,0.3,1.1,0.3,1.7c0,1.5-0.5,2.6-1.5,3.5
		c-1,0.9-2.4,1.3-4.1,1.3c-0.4,0-0.9,0-1.3-0.1c-1,0.5-1.4,1.2-1.4,1.9c0,0.4,0.2,0.7,0.5,0.9c0.3,0.2,0.9,0.3,1.7,0.3h2.7
		c1.6,0,2.9,0.3,3.7,1c0.9,0.7,1.3,1.7,1.3,3c0,1.7-0.7,2.9-2,3.8c-1.3,0.9-3.3,1.3-5.8,1.3c-2,0-3.5-0.4-4.5-1.1
		c-1.1-0.7-1.6-1.8-1.6-3.1c0-0.9,0.3-1.7,0.9-2.4c0.6-0.7,1.4-1.1,2.5-1.4c-0.4-0.2-0.7-0.4-1-0.8s-0.4-0.8-0.4-1.3
		c0-0.5,0.1-1,0.4-1.4c0.3-0.4,0.8-0.8,1.4-1.2c-0.8-0.3-1.4-0.9-1.9-1.6c-0.5-0.8-0.7-1.6-0.7-2.6c0-1.6,0.5-2.9,1.5-3.8
		s2.4-1.3,4.2-1.3c0.8,0,1.5,0.1,2.1,0.3H544.8z M532.9,402.1c0,0.8,0.3,1.4,1,1.8s1.7,0.6,2.9,0.6c1.9,0,3.3-0.3,4.2-0.9
		s1.4-1.3,1.4-2.3c0-0.8-0.2-1.4-0.8-1.7c-0.5-0.3-1.4-0.5-2.8-0.5h-2.7c-1,0-1.8,0.2-2.4,0.7S532.9,401.1,532.9,402.1z
		 M534.1,389.4c0,1,0.3,1.8,0.9,2.4c0.6,0.5,1.4,0.8,2.5,0.8c2.2,0,3.3-1.1,3.3-3.2c0-2.3-1.1-3.4-3.4-3.4c-1.1,0-1.9,0.3-2.5,0.9
		S534.1,388.2,534.1,389.4z"/>
	<path class="st2" d="M554.2,399.8c-2.2,0-4-0.7-5.2-2c-1.3-1.3-1.9-3.2-1.9-5.6c0-2.4,0.6-4.3,1.8-5.8s2.8-2.1,4.8-2.1
		c1.9,0,3.4,0.6,4.5,1.9s1.6,2.9,1.6,4.9v1.4h-10.3c0,1.8,0.5,3.1,1.3,4c0.8,0.9,2,1.4,3.6,1.4c1.6,0,3.2-0.3,4.8-1v2
		c-0.8,0.3-1.6,0.6-2.3,0.7C556.1,399.7,555.3,399.8,554.2,399.8z M553.6,386.2c-1.2,0-2.2,0.4-2.9,1.2c-0.7,0.8-1.1,1.9-1.3,3.3
		h7.8c0-1.4-0.3-2.5-1-3.3C555.7,386.6,554.8,386.2,553.6,386.2z"/>
	<path class="st2" d="M573.3,395.5c0,1.4-0.5,2.5-1.6,3.2s-2.5,1.1-4.4,1.1c-2,0-3.5-0.3-4.6-0.9v-2.1c0.7,0.4,1.5,0.7,2.3,0.9
		c0.8,0.2,1.6,0.3,2.4,0.3c1.2,0,2.1-0.2,2.7-0.6c0.6-0.4,1-1,1-1.7c0-0.6-0.3-1.1-0.8-1.5s-1.5-0.9-3-1.5c-1.4-0.5-2.4-1-3-1.4
		s-1-0.8-1.3-1.3s-0.4-1.1-0.4-1.8c0-1.2,0.5-2.2,1.5-2.9c1-0.7,2.4-1.1,4.1-1.1c1.6,0,3.2,0.3,4.7,1l-0.8,1.8
		c-1.5-0.6-2.9-0.9-4.1-0.9c-1.1,0-1.9,0.2-2.4,0.5s-0.8,0.8-0.8,1.4c0,0.4,0.1,0.7,0.3,1s0.5,0.6,1,0.8c0.5,0.3,1.3,0.6,2.6,1.1
		c1.8,0.6,3,1.3,3.6,2C573,393.6,573.3,394.5,573.3,395.5z"/>
</g>
</svg>
