<?xml version="1.0" encoding="utf-8"?>
<!-- Generator: Adobe Illustrator 18.1.0, SVG Export Plug-In . SVG Version: 6.00 Build 0)  -->
<!DOCTYPE svg PUBLIC "-//W3C//DTD SVG 1.1 Tiny//EN" "http://www.w3.org/Graphics/SVG/1.1/DTD/svg11-tiny.dtd">
<svg version="1.1" baseProfile="tiny" id="Calque_1"
	 xmlns="http://www.w3.org/2000/svg" xmlns:xlink="http://www.w3.org/1999/xlink" x="0px" y="0px" viewBox="0.5 725.5 595.5 116.7"
	 xml:space="preserve">
<path fill="#47433C" stroke="#131718" stroke-width="0.567" d="M85,789.2l-19.8-0.8c0,0-2.2,20.3-3.8,34.2
	C59.8,836.5,42,837.6,42,837.6c-4.9,1.1-4.6,4.6-4.6,4.6C37.7,831.5,23,825,23,825c-9-4.3-3-10-3-10c6.5-6.5,0.5-6.8,0.5-6.8
	c0.3-1.1,2.2-3.3,7.6-0.8c6,3-0.8,9-3.5,12.8c-3,3.5,0.5,5.2,0.5,5.2s4.9,2.7,10.9,4.1c11.7,2.7,15.7-7.9,15.7-7.9
	c9.5-19.8,5.4-58.7,5.4-58.7c-3.5-24.4-13.3-32-17.1-33.9c0,0-3-1.4-7.1-2.2C13.8,724,6,733.8,6,734.1c0,0-6.5,8.4-3.3,16.6
	c1.9,4.6,6.2,8.1,13,10.9c8.4,3.3,18.4,0.5,22.5-4.3c0,0,6.8-7.3,0.5-12.2l0.8-0.5c6.8,5.4-0.3,13-0.3,13c-3.3,3.8-9.8,6.2-16.8,6
	c-2.4,0-4.6-0.5-7.1-1.4c-7.1-2.7-11.7-6.5-13.6-11.1C-1.6,742.7,5,734,5.2,734c0,0,8.4-10.3,28.2-7.6h0.5c5.4,0.8,8.1,2.2,8.1,2.2
	c22,9,22.8,53.6,22.8,53.6l19.8,0.8v6.2H85z M158.4,820.2c0,0-14.1,23.3-44.3,12.2c-14.9-5.4-21.2-28.2-21.2-28.2
	s-10.6-44.1,21.2-69.8c0,0,17.9-13.6,37.7,0.8c0,0-12.8-14.1-33.4-7.9c-16.3,4.9-26,24.4-26,24.4s-8.1,18.4-7.6,34.2v6.8
	c0,0,1.4,42.6,40.4,44.6c0,0,23.9,0.5,34.5-17.4L158.4,820.2z"/>
<path fill="#D5A955" d="M208.6,758.3h17.6V743c0-2.7,0-4.6-0.3-5.7c-0.5-2.2-1.6-3.5-3.3-4.1c-0.8-0.3-1.9-0.3-3.3-0.3h-0.1v-2.2
	h29.6v2.2H247c-2.7,0-4.3,0.5-5.2,1.6c-0.8,0.8-1.1,2.4-1.4,4.3c0,0.8,0,2.2,0,4.1v36.1c0,2.7,0,4.6,0.3,5.7c0.3,2.2,1.4,3.5,3,4.1
	c0.8,0.3,1.9,0.3,3.3,0.3h1.9v2.2H219v-2.2h0.3c2.7,0,4.3-0.5,5.2-1.6c0.8-0.8,1.1-2.4,1.4-4.3c0-0.8,0-2.2,0-4.1v-18.7h-17.6v18.7
	c0,2.7,0,4.6,0.3,5.7c0.3,2.2,1.4,3.5,3,4.1c0.8,0.3,1.9,0.3,3.3,0.3h0.3v2.2h-28.8v-2.2h1.9c2.7,0,4.3-0.5,5.2-1.6
	c0.8-0.8,1.1-2.4,1.4-4.3c0-0.8,0-2.2,0-4.1v-36.1c0-2.7,0-4.6-0.3-5.7c-0.3-2.2-1.4-3.5-3-4.1c-0.8-0.3-1.9-0.3-3.3-0.3h-1.9v-2.2
	H216v2.2h-0.3c-2.7,0-4.3,0.5-5.2,1.6c-0.8,0.8-1.1,2.4-1.4,4.3c0,0.8,0,2.2,0,4.1v15.2H208.6z M194.2,733c0.8,0.8,1.1,1.9,1.4,3
	c0.3,1.4,0.5,3.3,0.5,6v38.5c0,2.4-0.3,4.3-0.5,6c-0.3,1.1-0.8,2.2-1.4,3h11.1c-0.5-1.1-0.8-1.9-1.1-3c0-0.8-0.3-2.2-0.3-4.3v-41.8
	c0-1.9,0-3.5,0.3-4.3c0.3-1.1,0.5-1.9,1.1-3h-11.1V733z M225.8,733c0.8,0.8,1.1,1.9,1.4,3c0.3,1.4,0.5,3.3,0.5,6v38.5
	c0,2.4-0.3,4.3-0.5,6c-0.3,1.1-0.8,2.2-1.4,3h11.1c-0.5-1.1-0.8-1.9-1.1-3c0-0.8-0.3-2.2-0.3-4.3v-41.8c0-1.9,0-3.5,0.3-4.3
	c0.3-1.1,0.5-1.9,1.1-3h-11.1V733z M276.2,774.6h-16.3c-0.3,1.1-0.3,2.2-0.3,3.3c0,3,0.5,5.4,1.9,7.6c0.8,1.4,1.6,2.4,2.7,3
	c0.8,0.3,2.2,0.5,3.8,0.8v2.2h-21.4v-2.2c3.8-0.3,7.9-5.4,11.4-15.5l16.3-44.6h1.4l18.4,50.6c1.1,3,1.9,4.9,2.7,6
	c1.4,1.9,2.7,3,4.1,3.5c0.5,0,1.4,0.3,1.9,0.3h0.8v2.2h-30.9v-2.2h3c1.4,0,2.2-0.5,2.7-1.4c0.5-0.9,1.1-1.9,1.1-2.7
	c0-0.8-0.3-1.9-0.8-3.3L276.2,774.6z M257.8,789.2c-0.8-1.9-1.1-3.8-1.1-5.7c0-0.5,0-1.6,0.3-2.7c-1.9,4.1-3.8,6.8-5.7,8.1h6.5
	V789.2z M275.4,772.4l-7.6-21.2l-7.6,21.2H275.4z M292.2,789.2l-19-52.2l-4.6,12.2l11.7,32.6c0.5,1.4,0.8,2.4,0.8,3.5
	c0,1.6-0.3,2.7-1.1,4.1h12.2V789.2z M343.9,749.4v16.8c0,5.7-0.5,10-1.4,13.3c-2.4,9.2-9,13.8-19.3,13.8c-6.5,0-11.4-2.7-14.4-7.9
	c-1.6-2.7-2.4-6-3-10c-0.3-1.9-0.3-4.6-0.3-8.4V743c0-2.7,0-4.6-0.3-5.7c-0.3-2.2-1.4-3.5-3-4.1c-1.1-0.3-2.2-0.3-3.5-0.3h-1.9v-2.2
	h30.9v2.2h-1.9c-2.7,0-4.3,0.5-5.2,1.6c-0.8,0.8-1.1,2.4-1.4,4.3c0,0.8,0,2.2,0,4.1v32.3c0,4.3,0.5,7.9,1.9,10.3
	c0.8,1.6,1.9,2.7,3.3,3.5c1.4,0.8,2.7,1.4,4.1,1.4c3.3,0,6-1.4,8.7-4.3c2.4-2.7,4.1-6.8,4.6-11.7c0.3-1.9,0.3-4.9,0.3-9v-16.3
	c0-6.8-1.4-11.4-3.5-13.8c-1.9-1.6-3.5-2.4-5.4-2.4v-2.2h18.7v2.2c-1.9,0.3-3.5,1.4-4.9,3C345,738.9,343.9,743.3,343.9,749.4
	 M320.3,791.1c-3.8-3.3-5.7-8.7-5.4-16.3v-34.5c0-1.9,0-3.3,0.3-4.3c0.3-1.1,0.5-1.9,1.1-3h-11.1c0.5,0.8,1.1,1.9,1.4,3
	c0.3,1.4,0.5,3.3,0.5,6v27.4c0,5.4,0.5,9.5,1.9,12.5c1.6,4.1,4.3,6.8,7.9,8.4C317.8,790.9,319.2,791.1,320.3,791.1 M344.4,733h-6
	c1.1,0.8,1.9,1.9,2.4,3.3c0.8,1.4,1.1,2.4,1.4,3.8c0-1.4,0.3-2.7,0.5-3.8C343.4,734.9,343.9,733.8,344.4,733 M404.8,736.8
	l-18.4,54.6h-1.1l-19.3-48.7v30.1c0,6.8,1.4,11.4,3.5,13.8c1.6,1.6,3.3,2.4,5.2,2.2v2.2h-20.1v-2.2c2.7,0,4.6-1.1,6.2-3
	c2.2-3,3.3-7.6,3.3-13.3V738c-1.6-3.5-4.1-5.4-7.6-5.4h-1.6v-1.9h22.8l14.9,37.7l12.2-37.7H427v2.2h-1.9c-2.7,0-4.3,0.5-5.2,1.6
	c-0.8,0.8-1.1,2.4-1.4,4.3c0,0.8,0,2.2,0,4.1v36.1c0,2.7,0,4.6,0.3,5.7c0.3,2.2,1.4,3.5,3,4.1c0.8,0.3,1.9,0.3,3.3,0.3h1.9v2.2
	h-30.9v-2.2h1.9c2.7,0,4.3-0.5,5.2-1.6c0.8-0.8,1.1-2.4,1.4-4.3c0-0.8,0-2.2,0-4.1v-42.3L404.8,736.8L404.8,736.8z M365.9,789.2
	c-1.1-1.6-1.6-4.1-1.9-7.1c-0.5,2.7-1.9,5.2-4.1,7.1H365.9z M372.1,733h-10.3c0.8,0.8,1.6,1.6,2.4,2.7c0.5,1.1,1.4,2.7,2.2,4.9
	l19,47.9l4.1-11.7L372.1,733z M415.1,733h-9v47.3c0,2.4-0.3,4.3-0.5,6c-0.3,1.1-0.8,2.2-1.4,3h10.9c-0.5-1.1-0.8-1.9-1.1-3
	c0-0.8-0.3-2.2-0.3-4.3v-41.5c0-1.9,0-3.5,0.3-4.3C414.3,734.9,414.5,734.1,415.1,733 M456.6,728.9c7.3,0,13.6,2.7,18.4,7.9
	c2.7,2.7,4.6,6,6.2,10c1.6,4.6,2.7,9.8,2.7,15.2c0,7.1-1.4,13.3-4.1,18.7c-4.3,8.4-11.4,12.5-21.4,12.5c-6,0-10.9-1.4-14.7-4.1
	c-4.3-3-7.6-7.3-10-12.8c-1.9-4.6-3-9.8-3-15.5c0-7.1,1.4-13.3,4.3-18.7c2.4-4.3,5.4-7.9,9-10S451.7,728.9,456.6,728.9 M450.1,731.6
	c-3.8,1.1-7.3,3-10,6.5c-2.4,3-4.3,6.2-5.7,10.3c-1.4,4.1-1.9,8.1-1.9,12.5c0,7.1,1.6,13.3,4.9,19c2.4,4.3,5.7,7.3,9.2,9.2
	c1.1,0.5,2.2,1.1,3.3,1.4c-1.9-2.7-3.5-5.4-4.6-8.4c-2.4-6.2-3.5-13.3-3.5-20.9c0-6.8,1.1-13,3-18.7
	C445.7,738.7,447.6,735.1,450.1,731.6 M457.4,731.1c-3.5,0-6.2,3.3-7.9,9.5c-1.6,6.2-2.4,12.8-2.4,20.3c0,7.3,0.8,14.4,2.4,20.6
	c1.1,3.8,2.4,6.5,4.1,8.1c1.1,1.1,2.4,1.6,4.3,1.6c3.8,0,6.5-3.3,8.4-9.8c1.4-5.2,1.9-11.4,1.9-18.7c0-8.7-0.8-15.7-2.2-21.4
	c-1.1-4.1-2.7-6.8-4.6-8.4C460.4,731.4,459,731.1,457.4,731.1 M463.1,731.6c1.9,3,3.5,6.2,4.3,10c1.4,5.7,2.2,12.5,2.2,20.6
	c0,7.3-0.8,13.6-2.2,19c-0.8,3.3-1.9,5.7-3,7.9c-0.3,0.5-0.8,1.1-1.4,1.9c3.3-0.8,6.2-3,9-6.8c2.2-3,3.8-6.8,5.2-10.9
	c1.1-3.8,1.6-7.9,1.6-11.9c0-5.7-1.1-11.4-3.3-16.8c-2.2-5.4-5.2-9.2-9-11.7C465.8,732.7,464.5,732.2,463.1,731.6 M510.4,730.8
	l23.1,33.1v-14.7c0-6.8-1.1-11.4-3.5-13.8c-1.6-1.6-3.3-2.4-5.2-2.4v-2.2h20.1v2.2c-2.7,0-4.6,1.1-6.2,3c-1.1,1.6-1.9,3.3-2.4,5.4
	c-0.5,2.2-0.8,4.9-0.8,7.9v44.1h-1.4l-35.4-50.9V773c0,6.8,1.4,11.4,3.5,13.8c1.6,1.6,3.3,2.4,5.2,2.2v2.2h-20.1V789
	c2.7,0,4.6-1.1,6.2-3c2.2-3,3.3-7.6,3.3-13.3V740l-1.4-1.9c-0.5-0.8-1.4-1.6-2.2-2.7c-1.1-1.1-1.9-1.6-2.2-1.9
	c-0.8-0.5-1.6-0.5-3-0.5h-0.3v-2.2H510.4z M505.3,733h-12.2c1.6,1.1,3.3,3.3,5.4,6l35.8,51.4v-16L505.3,733z M499,789.2
	c-1.1-1.6-1.9-4.1-1.9-7.1c-0.5,2.7-1.9,5.2-4.1,7.1H499z M530.2,733c1.9,1.9,3.3,4.1,3.8,6.5c0.3-3,1.1-5.2,2.2-6.5H530.2z
	 M596,730.8v26.6h-1.4c-0.5-2.7-1.6-6-3.3-10c-1.9-4.3-4.3-8.4-7.1-11.7c-1.6-1.9-3.3-2.7-5.2-2.7h-1.1v46.2c0,2.7,0,4.6,0.3,5.7
	c0.3,2.2,1.4,3.5,3,4.1c0.8,0.3,1.9,0.3,3.3,0.3h1.9v2.2h-30.9v-2.2h1.9c2.7,0,4.3-0.5,5.2-1.6c0.8-0.8,1.1-2.4,1.4-4.3
	c0-0.8,0-2.2,0-4.1v-46.2h-0.8c-1.9,0-3.5,0.8-4.9,2.2c-4.9,5.4-8.1,12.8-10.6,22.2h-1.4v-26.6H596V730.8z M547.9,733v11.4
	c0.8-1.9,1.6-4.1,2.7-6.2c1.1-2.2,2.2-4.1,3.3-5.2C553.8,733,547.9,733,547.9,733z M563.9,789.2h11.1c-0.5-1.1-0.8-1.9-1.1-3
	c0-0.8-0.3-2.2-0.3-4.3V733h-7.9v47.3c0,2.4-0.3,4.3-0.5,6C564.9,787.3,564.4,788.4,563.9,789.2 M591.9,733H584
	c1.4,1.4,2.7,3,4.3,5.4c1.4,2.2,2.4,4.3,3.5,6.5V733H591.9z M473.7,831l1.6,3.5c0.3,0.8,0.5,1.4,0.8,1.6c0.5,0.5,1.4,0.8,2.4,0.8
	h0.8v0.8h-9.2l-0.8-1.9c-1.9,1.9-3.8,2.7-5.7,2.7c-0.8,0-1.6-0.3-2.4-0.8c-0.8-0.5-1.6-1.1-2.2-1.9c-0.8-1.4-1.4-3-1.4-4.6
	c0-2.2,0.5-3.8,1.6-4.9c0.8-0.8,1.9-1.6,3.5-2.4c0.3,0,0.5-0.3,0.8-0.3l-0.5-1.4c-0.8-1.6-1.1-3.3-1.1-4.9c0-1.9,0.5-3.5,1.6-4.9
	c0.8-1.1,2.2-1.6,3.5-1.6c1.6,0,2.7,0.5,3.8,1.6c0.8,1.1,1.1,2.2,1.1,3.8s-0.3,3-1.1,4.3c-0.3,0.5-0.8,0.8-1.4,1.6l3.5,7.6
	c0.3-0.5,0.5-0.8,0.5-1.1c0.3-0.5,0.5-1.4,0.5-2.4c0-1.9-0.8-3.3-2.2-3.5v-0.8h7.6v0.8c-0.5,0.3-1.1,0.5-1.6,1.1
	c-0.8,0.8-1.6,2.2-2.7,3.8L473.7,831z M461.5,825.6c-1.9,1.1-2.7,3-2.7,5.4c0,1.9,0.5,3.5,1.6,4.9c1.1,1.4,2.2,1.9,3.5,1.9
	c0.3,0,0.5,0,1.1,0c-0.8-0.8-1.4-1.9-2.2-3c-0.5-0.8-0.8-1.9-1.1-3c-0.3-1.4-0.5-2.4-0.5-3.5C461.2,827.5,461.2,826.7,461.5,825.6
	 M465.5,812.3c-0.5,0.3-1.1,0.5-1.4,1.1c-0.8,1.1-1.4,2.4-1.4,4.1c0,1.4,0.3,2.7,0.8,3.8l7.3,15.7h3.3l-7.9-17.4
	c-0.8-1.6-1.1-3-1.1-4.3C465,814.5,465.3,813.4,465.5,812.3 M464.2,824.5c-0.8,0.3-1.4,1.1-1.4,2.4c0,1.6,0.5,3.8,1.6,6.5
	c0.5,1.1,0.8,1.6,1.4,2.2c0.3,0.5,0.8,0.8,1.4,0.8c0.6,0,1.4-0.3,1.9-1.1L464.2,824.5z M469.3,821.8c1.6-1.4,2.2-3,2.2-5.2
	c0-1.4-0.3-2.2-0.8-3.3c-0.5-0.8-1.4-1.4-2.4-1.4c-1.1,0-1.6,0.8-1.6,2.4c0,1.1,0.3,2.4,1.1,4.1L469.3,821.8z M476.4,823.2h-2.7
	c0.8,0.8,1.1,2.2,1.1,3.5v0.3L476.4,823.2z M508.5,812v9.2H508c-1.1-2.2-2.4-4.3-3.8-6.2c-1.1-1.4-1.9-1.9-2.7-2.2
	c-0.3,0-0.8-0.3-1.4-0.3h-2.7v10.9h0.5c1.4,0,2.2-0.5,3.3-1.6c0.5-0.8,1.1-1.9,1.4-2.7h0.5v10h-0.5c-0.3-1.1-0.8-1.9-1.6-2.7
	c-0.5-0.5-1.1-1.1-1.4-1.4c-0.5-0.3-1.1-0.3-1.6-0.3h-0.8v7.9c0,1.1,0,1.9,0,2.4c0.3,0.8,0.5,1.6,1.4,1.6c0.3,0,0.8,0,1.4,0h0.8v0.8
	h-13.3v-0.8h0.8c1.1,0,1.9-0.3,2.2-0.8c0.3-0.3,0.5-1.1,0.5-1.9c0-0.3,0-0.8,0-1.6v-15.2c0-1.1,0-1.9,0-2.4
	c-0.3-0.8-0.5-1.6-1.4-1.6c-0.3,0-0.8,0-1.4,0h-0.8v-0.8h21.2V812H508.5z M490.9,812.8c0.3,0.3,0.5,0.8,0.5,1.4
	c0.3,0.5,0.3,1.4,0.3,2.4v16.6c0,1.1,0,1.9-0.3,2.4c0,0.5-0.3,0.8-0.5,1.4h4.6c-0.3-0.5-0.3-0.8-0.5-1.4c0-0.3,0-1.1,0-1.9v-20.9
	H490.9z M501.7,826.7v-4.6c-0.5,1.1-1.4,1.6-2.2,2.2C500.4,825.1,501.2,825.6,501.7,826.7 M506.6,812.8h-4.1c1.6,1.4,3,3,4.1,5.2
	V812.8z M512.6,833.6v-13c0-0.8,0-1.6,0-2.2c0-0.8-0.5-1.4-1.1-1.4c-0.3,0-0.5,0-1.1,0h-0.8v-0.8h11.1v0.8h-0.8
	c-0.8,0-1.6,0.3-1.9,0.5c-0.3,0.3-0.5,0.8-0.5,1.6c0,0.3,0,0.8,0,1.4v13c0,0.8,0,1.6,0,2.2c0,0.8,0.5,1.4,1.1,1.4c0.3,0,0.5,0,1.1,0
	h0.8v0.8h-11.1v-0.8h0.8c0.8,0,1.6-0.3,1.9-0.5c0.3-0.3,0.5-0.8,0.5-1.6C512.6,834.7,512.6,834.1,512.6,833.6 M512.6,816.9
	c0.5,0.5,0.8,1.6,0.8,3.3v13.8c0,1.4-0.3,2.4-0.8,3.3h3.8c-0.3-0.3-0.3-0.8-0.3-1.1s0-0.8,0-1.6v-15c0-0.8,0-1.1,0-1.6
	c0-0.3,0.3-0.8,0.3-1.1H512.6z M530.2,837.1h1.6c0.8,0,1.6-0.3,2.4-0.5c0.5-0.3,1.4-1.1,2.2-1.9c1.4-1.4,2.4-3,3.3-4.9h0.5v7.9
	h-17.9v-0.8h0.8c0.8,0,1.6-0.3,1.9-0.5c0.3-0.3,0.5-0.8,0.5-1.6c0-0.3,0-0.8,0-1.4v-13c0-0.8,0-1.6,0-2.2c0-0.8-0.5-1.4-1.1-1.4
	c-0.3,0-0.5,0-1.1,0h-0.7v-0.8h11.1v0.8h-0.8c-0.8,0-1.6,0.3-1.9,0.5c-0.3,0.3-0.5,0.8-0.5,1.6c0,0.3,0,0.8,0,1.4v16.8H530.2z
	 M525.1,816.9c0.5,0.5,0.8,1.6,0.8,3.3v13.8c0,1.4-0.3,2.4-0.8,3.3h3.5v-17.4c0-0.8,0-1.4,0-1.6c0-0.3,0.3-0.8,0.3-1.1h-3.8V816.9z
	 M538.4,837.1v-4.3c-0.5,0.8-1.1,1.6-1.9,2.4c-0.5,0.8-1.4,1.4-1.9,1.6h3.8L538.4,837.1L538.4,837.1z M556.5,815.8v8.1H556
	c-0.8-2.2-1.9-3.8-3.3-5.2c-1.6-1.6-3.5-2.4-5.4-2.4c-1.1,0-1.9,0.3-2.7,0.8c-0.3,0.3-0.5,0.5-0.8,1.1c-0.3,0.5-0.3,0.8-0.3,1.4
	c0,0.8,0.3,1.6,1.1,2.2c0.5,0.5,1.6,0.8,3.3,1.4l3.5,0.8c1.9,0.5,3.5,1.1,4.3,2.2c1.4,1.1,1.9,3,1.9,5.4c0,1.4-0.3,2.4-0.5,3.3
	c-0.3,1.1-0.8,1.9-1.6,2.4c-1.1,1.1-2.7,1.6-4.3,1.6c-1.9,0-3.8-0.8-5.4-2.2c-0.3-0.3-0.8-0.8-1.6-1.6l-2.7,3.3H541v-9h0.5
	c0.8,2.2,1.9,3.8,3.3,5.4c1.1,1.1,1.9,1.9,3,2.4c1.1,0.5,2.2,0.8,3.3,0.8c1.1,0,2.2-0.3,2.7-0.8c0.5-0.5,1.1-1.1,1.1-2.2
	s-0.5-1.9-1.6-2.4c-0.8-0.3-1.6-0.8-2.7-1.1l-4.1-0.8c-4.1-0.8-6-3.3-6-7.3c0-2.4,0.5-4.3,1.9-5.7c1.4-1.4,2.7-1.9,4.6-1.9
	c2.2,0,4.1,1.1,6,3.3l2.4-3h1.4v-0.3H556.5z M543.2,818.3c-1.1,1.1-1.6,2.7-1.6,4.9c0,1.9,0.5,3.5,1.6,4.6c0.5,0.5,1.4,1.1,2.2,1.4
	c0.5,0.3,1.4,0.5,2.2,0.5l3.3,0.8c1.6,0.3,2.7,0.8,3.8,1.4c1.1,0.5,1.6,1.6,1.6,3c0,0.5,0,1.1-0.3,1.6c0.8-0.8,1.1-2.2,1.1-4.1
	c0-2.2-0.8-3.8-2.2-4.9c-0.8-0.5-1.9-1.1-3.3-1.4l-4.3-0.8c-1.6-0.3-2.7-0.8-3.3-1.4c-0.3-0.3-0.8-0.8-0.8-1.6
	c0-0.5-0.3-0.8-0.3-1.4C542.7,819.9,543,819.1,543.2,818.3 M541.9,837.4l1.9-2.2c-0.5-0.8-1.4-1.6-1.9-3V837.4z M555.5,817.7
	l-1.1,1.4c0.3,0.3,0.8,1.1,1.1,1.9V817.7z"/>
</svg>
