<?xml version="1.0" encoding="utf-8"?>
<!-- Generator: Adobe Illustrator 18.1.0, SVG Export Plug-In . SVG Version: 6.00 Build 0)  -->
<!DOCTYPE svg PUBLIC "-//W3C//DTD SVG 1.1//EN" "http://www.w3.org/Graphics/SVG/1.1/DTD/svg11.dtd">
<svg version="1.1" id="vipimg" xmlns="http://www.w3.org/2000/svg" xmlns:xlink="http://www.w3.org/1999/xlink" width="144px" height="46px" x="0px" y="0px"
	 viewBox="0 0 146.1 44.7" enable-background="new 0 0 146.1 44.7" xml:space="preserve">
<g>
	<path fill-rule="evenodd" clip-rule="evenodd" fill="#E5AD4F" class="path" d="M17.2,4.9c-1.1-0.2-2.4-0.3-3.7-0.3c-1.3,0-2.6,0-3.9,0.2C8.3,4.9,7.1,5.2,5.9,5.7c-1.1,0.4-2.2,1-3,1.7
		S1.5,9,1.1,10c-0.3,0.8-0.4,1.6-0.2,2.4C1,13.2,1.3,14,1.7,14.7c0.4,0.7,0.8,1.4,1.3,2c0.5,0.6,0.9,1.1,1.3,1.6
		c0.4,0.4,0.5,0.7,0.4,0.8c-0.1,0.1-0.4,0-0.8-0.4c-1.4-1.4-2.4-2.7-3.1-4c-0.7-1.3-0.9-2.6-0.7-3.9c0.2-1.2,0.8-2.3,1.7-3.2
		C2.6,6.7,3.7,6,4.9,5.5C6.2,4.9,7.5,4.5,9,4.3s2.9-0.4,4.4-0.4c1.4,0,2.8,0,4,0.2c1.3,0.1,2.3,0.3,3.1,0.6c1.9,0.6,3.5,1.4,4.9,2.4
		c1.3,1,2.4,2,3.2,3.1c0.8,1.1,1.3,2.4,1.5,3.7c0.2,1.3,0.1,2.6-0.2,3.9c-0.3,1.3-0.9,2.6-1.8,3.8c-0.9,1.2-2,2.4-3.4,3.4
		c-0.5,0.4-1.2,0.8-2,1.2s-1.7,0.9-2.7,1.3c-1,0.4-2,0.7-3,1c-1,0.3-2,0.4-3,0.4c-0.9,0-1.7-0.2-2.4-0.5s-1.3-0.9-1.6-1.8
		c-0.1-0.2-0.1-0.3-0.2-0.3c-0.1,0-0.1,0.1-0.2,0.3c-0.1,0.3-0.2,0.7-0.4,1c-0.1,0.3-0.2,0.7-0.3,1.1c-0.1,0.4-0.2,0.5-0.3,0.5
		c-0.2,0-0.2-0.2-0.1-0.6C8.4,28,8.5,27.5,8.7,27c0.2-0.5,0.4-1,0.5-1.5c0-0.1,0.1-0.2,0-0.2c0,0,0-0.1-0.1-0.3
		c-0.4-1-0.2-1.6,0.7-1.6c0.1,0,0.1,0,0.1,0c0,0,0,0,0-0.1c0.4-0.8,0.9-1.8,1.4-2.7s1.1-1.9,1.6-2.9c0.6-1,1.1-1.9,1.7-2.9
		c0.6-0.9,1.1-1.8,1.7-2.6s1-1.5,1.5-2.2c0.5-0.7,0.9-1.2,1.2-1.6c0.1-0.1,0.2-0.2,0.4-0.3c0.2-0.1,0.4-0.1,0.5-0.1
		c0.2,0,0.3,0,0.4,0.1c0.1,0.1,0.1,0.2,0,0.3c-0.4,0.5-0.9,1.2-1.5,2s-1.2,1.7-1.9,2.7c-0.7,1-1.4,2-2.1,3.1c-0.7,1.1-1.4,2.1-2,3.1
		c-0.6,1-1.2,1.9-1.6,2.8s-0.8,1.5-1,2c-0.1,0.3-0.2,0.6-0.2,1s0.1,0.7,0.3,1c0.3,0.5,0.7,0.9,1.3,1.1s1.3,0.4,2.1,0.4
		c0.8,0,1.7,0,2.6-0.2c0.9-0.2,1.9-0.4,2.8-0.7c0.9-0.3,1.8-0.7,2.7-1.1c0.9-0.4,1.7-0.9,2.4-1.5c1.8-1.5,3.1-3.1,3.8-4.9
		c0.7-1.8,0.9-3.6,0.6-5.4c-0.3-1.8-1.2-3.4-2.7-4.9c-1.4-1.5-3.4-2.7-5.9-3.5C19.3,5.3,18.4,5.1,17.2,4.9z"/>
	<path fill-rule="evenodd" clip-rule="evenodd" fill="#E5AD4F" class="path" d="M41.5,18.7c-0.5,0.3-1,0.5-1.6,0.6c-0.4,0.1-0.9,0.1-1.6,0.1c-0.7,0-1.5,0-2.3,0.1c-0.8,0-1.7,0-2.5,0
		c-0.8,0-1.5,0-2.2,0c-0.2,0.3-0.5,0.7-0.7,1c-0.3,0.4-0.5,0.8-0.7,1.2s-0.4,0.9-0.6,1.3s-0.3,0.9-0.3,1.4c0,0.5,0,0.8,0.1,1.1
		s0.3,0.5,0.5,0.7c0.2,0.2,0.4,0.3,0.7,0.3c0.3,0.1,0.5,0.1,0.8,0c0.7-0.1,1.4-0.3,2.2-0.6c0.8-0.3,1.4-0.6,2-0.9
		c0.2-0.1,0.3-0.1,0.4,0c0.1,0.1,0,0.2-0.1,0.3c-0.2,0.2-0.5,0.3-0.8,0.5c-0.3,0.2-0.7,0.4-1,0.6s-0.8,0.4-1.2,0.5
		c-0.4,0.2-0.8,0.3-1.2,0.3c-0.3,0.1-0.7,0-1-0.1c-0.4-0.1-0.7-0.3-1-0.6c-0.3-0.3-0.6-0.6-0.8-0.9c-0.2-0.4-0.3-0.7-0.3-1.2
		c0.1-1.1,0.4-2.3,0.9-3.4c0.6-1.1,1.3-2.2,2.1-3.2c0.8-1,1.7-1.8,2.6-2.5c0.9-0.7,1.7-1.2,2.4-1.5c0.4-0.1,0.7-0.1,1.1,0
		c0.3,0.2,0.6,0.4,0.7,0.7c0.2,0.3,0.3,0.6,0.3,1s0,0.7-0.2,1c-0.3,0.6-0.9,1.1-1.7,1.5c-0.8,0.4-1.7,0.7-2.8,0.8c0.6,0,1.1,0,1.7,0
		c0.6,0,1.2,0,1.7,0c0.5,0,1,0,1.5,0c0.5,0,0.9-0.1,1.2-0.1c0.4,0,0.9-0.2,1.3-0.4c0.4-0.2,0.8-0.5,1-0.7c0.1-0.1,0.2-0.2,0.3-0.2
		c0.1,0,0.1,0.1,0,0.3C42.3,18.1,42,18.4,41.5,18.7z M37.9,15.6c0-0.2,0-0.4-0.2-0.6s-0.3-0.2-0.5-0.2s-0.5,0.1-0.8,0.3
		c-0.8,0.4-1.5,1-2.3,1.7s-1.5,1.5-2.2,2.2c0.5,0,1.1-0.1,1.7-0.2c0.6-0.1,1.1-0.3,1.6-0.5c0.5-0.2,1-0.5,1.4-0.8s0.8-0.7,1-1
		C37.8,16.1,37.9,15.8,37.9,15.6z"/>
	<path fill-rule="evenodd" clip-rule="evenodd" fill="#E5AD4F" class="path" d="M37.7,26.8c-0.2-0.2-0.3-0.3-0.2-0.5c0.5-2.3,2.1-5.2,4.6-8.7c0.1-0.1,0.2-0.1,0.3-0.1
		c0.3,0,0.5,0.1,0.5,0.4c0,0,0,0.1,0,0.1c0,0,0,0.1-0.1,0.1c-1.9,3-3,5.3-3.5,6.9c-0.1,0.2-0.1,0.5-0.1,0.7c0,0.5,0.2,0.7,0.5,0.7
		c0.2,0,0.5-0.1,0.8-0.4c0.4-0.4,1-0.9,1.5-1.6c0.6-0.7,1.3-1.6,2.1-2.7c0.5-0.7,1.1-1.4,1.6-2.1c0.5-0.7,1-1.4,1.5-2.1
		c0.1-0.1,0.1-0.3,0.2-0.6c0.1-0.3,0.1-0.6,0.3-1c0.3-0.2,0.5-0.4,0.7-0.6c0.2-0.1,0.4-0.3,0.5-0.3c0,0,0.1,0,0.2,0
		c0.1,0.1,0.2,0.1,0.3,0.2c0.1,0.1,0.2,0.2,0.2,0.2c0.1,0.1,0.1,0.1,0,0.2c-0.6,0.8-0.9,1.5-0.8,1.9c0,0.2,0.2,0.5,0.4,0.7
		c0.1,0,0.1,0.1,0.1,0.2c0,0.2-0.1,0.3-0.4,0.2c-0.2-0.1-0.4-0.1-0.6-0.2c-0.2-0.1-0.3-0.2-0.4-0.3c-0.1-0.1-0.2,0-0.4,0.2
		c-0.4,0.5-0.8,1.1-1.3,1.8c-0.5,0.7-1.1,1.4-1.7,2.2c-1.5,1.8-2.8,3.1-3.8,4c-0.5,0.5-0.9,0.7-1.3,0.7c-0.1,0.1-0.2,0.1-0.4,0.2
		c-0.1,0-0.3,0.1-0.6,0S37.9,27,37.7,26.8z"/>
	<path fill-rule="evenodd" clip-rule="evenodd" fill="#E5AD4F" class="path" d="M59.5,18.7c-0.5,0.3-1,0.5-1.6,0.6c-0.4,0.1-0.9,0.1-1.6,0.1c-0.7,0-1.5,0-2.3,0.1c-0.8,0-1.7,0-2.5,0
		c-0.8,0-1.5,0-2.2,0c-0.2,0.3-0.5,0.7-0.7,1c-0.3,0.4-0.5,0.8-0.7,1.2s-0.4,0.9-0.6,1.3s-0.3,0.9-0.3,1.4c0,0.5,0,0.8,0.1,1.1
		s0.3,0.5,0.5,0.7c0.2,0.2,0.4,0.3,0.7,0.3c0.3,0.1,0.5,0.1,0.8,0c0.7-0.1,1.4-0.3,2.2-0.6c0.8-0.3,1.4-0.6,2-0.9
		c0.2-0.1,0.3-0.1,0.4,0c0.1,0.1,0,0.2-0.1,0.3c-0.2,0.2-0.5,0.3-0.8,0.5c-0.3,0.2-0.7,0.4-1,0.6s-0.8,0.4-1.2,0.5
		c-0.4,0.2-0.8,0.3-1.2,0.3c-0.3,0.1-0.7,0-1-0.1c-0.4-0.1-0.7-0.3-1-0.6c-0.3-0.3-0.6-0.6-0.8-0.9c-0.2-0.4-0.3-0.7-0.3-1.2
		c0.1-1.1,0.4-2.3,0.9-3.4c0.6-1.1,1.3-2.2,2.1-3.2c0.8-1,1.7-1.8,2.6-2.5c0.9-0.7,1.7-1.2,2.4-1.5c0.4-0.1,0.7-0.1,1.1,0
		c0.3,0.2,0.6,0.4,0.7,0.7c0.2,0.3,0.3,0.6,0.3,1s0,0.7-0.2,1c-0.3,0.6-0.9,1.1-1.7,1.5c-0.8,0.4-1.7,0.7-2.8,0.8c0.6,0,1.1,0,1.7,0
		c0.6,0,1.2,0,1.7,0c0.5,0,1,0,1.5,0c0.5,0,0.9-0.1,1.2-0.1c0.4,0,0.9-0.2,1.3-0.4c0.4-0.2,0.8-0.5,1-0.7c0.1-0.1,0.2-0.2,0.3-0.2
		c0.1,0,0.1,0.1,0,0.3C60.3,18.1,60,18.4,59.5,18.7z M55.9,15.6c0-0.2,0-0.4-0.2-0.6s-0.3-0.2-0.5-0.2s-0.5,0.1-0.8,0.3
		c-0.8,0.4-1.5,1-2.3,1.7s-1.5,1.5-2.2,2.2c0.5,0,1.1-0.1,1.7-0.2c0.6-0.1,1.1-0.3,1.6-0.5c0.5-0.2,1-0.5,1.4-0.8s0.8-0.7,1-1
		C55.8,16.1,55.9,15.8,55.9,15.6z"/>
	<path fill-rule="evenodd" clip-rule="evenodd" fill="#E5AD4F" class="path" d="M54.7,26.6c-0.1-0.1-0.1-0.2,0.1-0.5c0.5-1,1.3-2.4,2.4-4.1c0.5-0.8,1-1.6,1.5-2.2s0.9-1.2,1.3-1.7
		c0.1-0.1,0.1-0.2,0.3-0.2c0.1-0.1,0.3-0.1,0.5-0.2c0.1,0,0.2,0,0.2,0c0,0.1,0,0.2-0.1,0.2c-0.8,0.9-1.5,1.8-2,2.7
		c-0.6,0.9-1.1,1.8-1.5,2.7c-0.1,0.1-0.1,0.2-0.1,0.4c0,0.2,0.1,0.3,0.2,0.3c0.1,0,0.2-0.1,0.4-0.2c0.6-0.6,1.2-1.1,1.8-1.7
		c0.6-0.5,1.3-1.1,1.9-1.6c1.5-1.2,2.6-2,3.1-2.2c0.3-0.2,0.5-0.4,0.8-0.5c0.5-0.2,0.8-0.2,1.1-0.1c0.3,0.1,0.3,0.3,0,0.7
		c-1.5,1.9-2.8,4.1-4,6.5c-1.1,2.4-1.7,4.4-1.8,5.8c-0.1,1,0.1,1.7,0.6,2.2c0.4,0.5,1,0.7,1.7,0.7c0.3,0,0.6,0,0.9-0.1
		c1.2-0.3,2.7-1.3,4.4-2.8c2-1.7,2.9-3,2.9-4c0-0.2,0-0.4-0.1-0.4c-0.1-0.1-0.2-0.2-0.3-0.2c-0.1,0-0.2,0-0.3,0
		c-0.1,0-0.1,0-0.1-0.1c0-0.1,0.1-0.2,0.3-0.3c0.2-0.1,0.3-0.1,0.5-0.1c0.4,0,0.5,0.2,0.5,0.7c0,0.2-0.1,0.5-0.2,0.9
		c-0.2,0.6-0.5,1.2-1,1.9c-0.5,0.7-1.1,1.4-1.8,2.1c-2,2-4.1,3.1-6.4,3.3c-0.8,0.1-1.5-0.1-2-0.7c-0.6-0.6-0.8-1.6-0.7-2.9
		c0.1-1.5,0.8-3.4,2-5.6c0.5-1,1-1.9,1.5-2.7c0.5-0.9,1.1-1.7,1.7-2.6c0.1-0.1,0.1-0.2,0.1-0.3c0-0.3-0.2-0.5-0.6-0.5
		c-0.2,0-0.3,0.1-0.5,0.2c-1.2,0.8-2.4,1.8-3.5,2.9c-1.2,1.1-2.4,2.4-3.6,3.8c-0.2,0.3-0.7,0.5-1.6,0.7
		C54.9,26.8,54.8,26.7,54.7,26.6z"/>
	<path fill-rule="evenodd" clip-rule="evenodd" fill="#E5AD4F" class="path" d="M72.1,24.4c-0.5,0.4-1.1,0.8-1.7,1.2c-0.6,0.4-1.2,0.8-1.8,1.2s-1.2,0.7-1.6,0.9c-0.1,0-0.3,0-0.6,0
		s-0.5-0.1-0.8-0.3c-0.3-0.2-0.5-0.4-0.7-0.6s-0.3-0.6-0.3-0.9c0-0.3,0.1-0.8,0.2-1.3c0.2-0.5,0.4-1.1,0.6-1.7s0.5-1.2,0.8-1.8
		c0.3-0.6,0.6-1.2,0.8-1.7c0.2-0.5,0.5-0.9,0.6-1.3c0.2-0.4,0.3-0.6,0.3-0.7c0-0.2,0.2-0.4,0.4-0.5c0.2-0.1,0.4-0.1,0.6,0
		c0.2,0.1,0.3,0.2,0.4,0.4c0.1,0.2,0,0.5-0.2,0.9c-0.7,1.3-1.2,2.3-1.6,3.1c-0.4,0.7-0.7,1.2-0.8,1.6c-0.2,0.3-0.3,0.5-0.3,0.6
		c0,0.1-0.1,0.1-0.1,0.2c0,0.1-0.1,0.2-0.1,0.3c-0.1,0.2-0.2,0.5-0.5,1s-0.4,0.9-0.4,1.2c0,0.3,0.1,0.5,0.2,0.6
		c0.1,0.1,0.3,0.2,0.5,0.2c0.2,0,0.4,0,0.6-0.1c0.4-0.1,0.9-0.3,1.5-0.6c0.6-0.3,1.2-0.7,1.8-1.1s1.2-0.8,1.7-1.2
		c0.5-0.4,1-0.7,1.2-1c0.2-0.2,0.3-0.3,0.4-0.3c0.1,0,0.1,0,0.1,0.1c0,0.1,0,0.2-0.1,0.3c-0.1,0.1-0.2,0.2-0.3,0.3
		C73,23.7,72.7,24,72.1,24.4z M70.5,15.1c-0.5,0.4-0.8,0.6-1.1,0.6c-0.5-0.1-0.7-0.3-0.7-0.5c0-0.3,0.2-0.7,0.7-1.1
		c0.5-0.5,0.9-0.8,1.1-0.8c0.2,0,0.4,0,0.6,0.2c0.2,0.2,0.3,0.4,0.2,0.5C71.3,14.2,71,14.6,70.5,15.1z"/>
	<path fill-rule="evenodd" clip-rule="evenodd" fill="#E5AD4F" class="path" d="M70.3,27.9c0-0.1,0-0.2,0-0.3c2-3.1,3.4-5.5,4.1-7.2c0.1-0.3,0.2-0.6,0.2-0.8c0,0,0-0.2-0.1-0.3
		c0-0.1,0-0.2,0-0.2c0.2-0.1,1-0.5,2.3-1.3c0,0,0.1-0.1,0.1-0.1c0.1,0,0.2,0.1,0.2,0.2c0.1,0.1,0.1,0.2,0,0.3
		c-0.7,0.9-1.2,1.7-1.7,2.4c-0.5,0.7-0.8,1.2-1,1.7c-0.1,0.1-0.1,0.2-0.1,0.3c0,0.1,0.1,0.1,0.3,0c0.2-0.1,0.3-0.2,0.4-0.2
		c0.8-1,1.8-2,3.1-3c1.3-1.1,2.4-1.8,3.1-2.1c0.6,0,1.1,0,1.4,0.2c0,0,0,0,0,0.1c0,0.1,0,0.2-0.1,0.3c-0.1,0.1-0.2,0.2-0.2,0.3
		c-0.1,0.1-0.2,0.2-0.3,0.2c-0.1,0.1-0.2,0.1-0.2,0c-0.4-0.2-1-0.1-1.7,0.3c-3.1,1.7-5.8,4.5-8.2,8.4c0,0.1-0.1,0.1-0.2,0.2
		c-0.2,0.1-0.4,0.1-0.6,0.2c-0.2,0.1-0.4,0.2-0.7,0.4C70.4,28,70.3,28,70.3,27.9z"/>
	<path fill-rule="evenodd" clip-rule="evenodd" fill="#E5AD4F" class="path" d="M110,10.8c-1.1,2.2-2.3,4.2-3.6,6.2c-1.3,2-2.6,3.8-4,5.4s-2.8,2.9-4.2,3.9c-0.6,0.4-1.1,0.7-1.8,0.9
		s-1.2,0.3-1.8,0.4c-0.6,0.1-1.1,0-1.6-0.1c-0.5-0.1-0.9-0.3-1.3-0.6c-0.2-0.2-0.4-0.5-0.6-0.9S91,25.3,90.9,25
		c-0.1-0.2,0-0.3,0.1-0.3c0.1,0,0.2,0,0.3,0.2c0.1,0.4,0.3,0.7,0.5,1c0.2,0.3,0.5,0.6,0.7,0.8c0.3,0.2,0.6,0.4,1,0.5
		c0.4,0.1,0.8,0.1,1.3,0.1s1-0.2,1.5-0.3c0.5-0.2,1-0.4,1.5-0.8c0.9-0.6,1.7-1.4,2.6-2.3c0.9-0.9,1.7-2,2.5-3.1
		c0.8-1.2,1.6-2.4,2.4-3.7c0.8-1.3,1.5-2.6,2.2-4s1.3-2.6,1.9-3.9s1.1-2.5,1.6-3.5c-1.2,0.2-2.5,0.5-3.7,0.9
		c-1.2,0.4-2.4,0.8-3.5,1.3c-1.1,0.5-2.2,1-3.2,1.6c-1,0.6-1.9,1.1-2.6,1.7c-0.5,0.4-1,0.9-1.5,1.4c-0.5,0.5-0.8,1.2-1,2
		c-0.1,0.4-0.1,0.8,0,1.2s0.2,0.7,0.3,0.9c0,0.1,0,0.2,0,0.2c-0.1,0.1-0.1,0-0.2-0.1c-0.2-0.2-0.3-0.6-0.5-1
		c-0.1-0.4-0.2-0.8-0.2-1.2c0-0.7,0.2-1.4,0.6-2.1c0.5-0.7,1.1-1.3,1.9-2c0.7-0.6,1.6-1.2,2.6-1.8c1-0.6,2.2-1.1,3.4-1.7
		c1.2-0.5,2.5-1,3.9-1.4c1.4-0.4,2.8-0.8,4.2-1.1c0.3-0.1,0.6-0.2,0.7-0.4c0.1-0.1,0.2-0.1,0.3-0.1c0.1,0,0.2,0.1,0.3,0.1
		c0.1,0.1,0.2,0.2,0.2,0.3c0.1,0.1,0.1,0.2,0,0.3C112.2,6.6,111.2,8.7,110,10.8z"/>
	<path fill-rule="evenodd" clip-rule="evenodd" fill="#E5AD4F" class="path" d="M102.9,26.6c-0.1-0.1-0.1-0.2,0.1-0.5c0.5-1,1.3-2.4,2.4-4.1c0.5-0.8,1-1.6,1.5-2.2s0.9-1.2,1.3-1.7
		c0.1-0.1,0.1-0.2,0.3-0.2c0.1-0.1,0.3-0.1,0.5-0.2c0.1,0,0.2,0,0.2,0c0,0.1,0,0.2-0.1,0.2c-0.8,0.9-1.5,1.8-2,2.7
		c-0.6,0.9-1.1,1.8-1.5,2.7c-0.1,0.1-0.1,0.2-0.1,0.4c0,0.2,0.1,0.3,0.2,0.3c0.1,0,0.2-0.1,0.4-0.2c0.6-0.6,1.2-1.1,1.8-1.7
		c0.6-0.5,1.3-1.1,1.9-1.6c1.5-1.2,2.6-2,3.1-2.2c0.3-0.2,0.5-0.4,0.8-0.5c0.5-0.2,0.8-0.2,1.1-0.1c0.3,0.1,0.3,0.3,0,0.7
		c-1.5,1.9-2.8,4.1-4,6.5c-1.1,2.4-1.7,4.4-1.8,5.8c-0.1,1,0.1,1.7,0.6,2.2c0.4,0.5,1,0.7,1.7,0.7c0.3,0,0.6,0,0.9-0.1
		c1.2-0.3,2.7-1.3,4.4-2.8c2-1.7,2.9-3,2.9-4c0-0.2,0-0.4-0.1-0.4c-0.1-0.1-0.2-0.2-0.3-0.2c-0.1,0-0.2,0-0.3,0
		c-0.1,0-0.1,0-0.1-0.1c0-0.1,0.1-0.2,0.3-0.3c0.2-0.1,0.3-0.1,0.5-0.1c0.4,0,0.5,0.2,0.5,0.7c0,0.2-0.1,0.5-0.2,0.9
		c-0.2,0.6-0.5,1.2-1,1.9c-0.5,0.7-1.1,1.4-1.8,2.1c-2,2-4.1,3.1-6.4,3.3c-0.8,0.1-1.5-0.1-2-0.7c-0.6-0.6-0.8-1.6-0.7-2.9
		c0.1-1.5,0.8-3.4,2-5.6c0.5-1,1-1.9,1.5-2.7c0.5-0.9,1.1-1.7,1.7-2.6c0.1-0.1,0.1-0.2,0.1-0.3c0-0.3-0.2-0.5-0.6-0.5
		c-0.2,0-0.3,0.1-0.5,0.2c-1.2,0.8-2.4,1.8-3.5,2.9c-1.2,1.1-2.4,2.4-3.6,3.8c-0.2,0.3-0.7,0.5-1.6,0.7
		C103.1,26.8,103,26.7,102.9,26.6z"/>
	<path fill-rule="evenodd" clip-rule="evenodd" fill="#E5AD4F" class="path" d="M120.4,24.4c-0.5,0.4-1.1,0.8-1.7,1.2c-0.6,0.4-1.2,0.8-1.8,1.2s-1.2,0.7-1.6,0.9c-0.1,0-0.3,0-0.6,0
		s-0.5-0.1-0.8-0.3c-0.3-0.2-0.5-0.4-0.7-0.6s-0.3-0.6-0.3-0.9c0-0.3,0.1-0.8,0.2-1.3c0.2-0.5,0.4-1.1,0.6-1.7s0.5-1.2,0.8-1.8
		c0.3-0.6,0.6-1.2,0.8-1.7c0.2-0.5,0.5-0.9,0.6-1.3c0.2-0.4,0.3-0.6,0.3-0.7c0-0.2,0.2-0.4,0.4-0.5c0.2-0.1,0.4-0.1,0.6,0
		c0.2,0.1,0.3,0.2,0.4,0.4c0.1,0.2,0,0.5-0.2,0.9c-0.7,1.3-1.2,2.3-1.6,3.1c-0.4,0.7-0.7,1.2-0.8,1.6c-0.2,0.3-0.3,0.5-0.3,0.6
		c0,0.1-0.1,0.1-0.1,0.2c0,0.1-0.1,0.2-0.1,0.3c-0.1,0.2-0.2,0.5-0.5,1s-0.4,0.9-0.4,1.2c0,0.3,0.1,0.5,0.2,0.6
		c0.1,0.1,0.3,0.2,0.5,0.2c0.2,0,0.4,0,0.6-0.1c0.4-0.1,0.9-0.3,1.5-0.6c0.6-0.3,1.2-0.7,1.8-1.1s1.2-0.8,1.7-1.2
		c0.5-0.4,1-0.7,1.2-1c0.2-0.2,0.3-0.3,0.4-0.3c0.1,0,0.1,0,0.1,0.1c0,0.1,0,0.2-0.1,0.3c-0.1,0.1-0.2,0.2-0.3,0.3
		C121.2,23.7,120.9,24,120.4,24.4z M118.7,15.1c-0.5,0.4-0.8,0.6-1.1,0.6c-0.5-0.1-0.7-0.3-0.7-0.5c0-0.3,0.2-0.7,0.7-1.1
		c0.5-0.5,0.9-0.8,1.1-0.8c0.2,0,0.4,0,0.6,0.2c0.2,0.2,0.3,0.4,0.2,0.5C119.5,14.2,119.2,14.6,118.7,15.1z"/>
	<path fill-rule="evenodd" clip-rule="evenodd" fill="#E5AD4F" class="path" d="M117.5,42.8c-0.6-0.6-0.9-1.3-1.1-2c-0.1-0.8-0.2-1.6-0.2-2.5c0-2.9,1.2-7.1,3.6-12.5
		c1.1-2.4,2.1-4.6,3.2-6.5c1.1-1.9,2.1-3.6,3.2-5.2c0.2-0.3,0.4-0.6,0.4-0.9c0-0.4-0.2-0.7-0.6-0.9c-0.7-0.3-1-0.6-0.9-1
		c0.1-0.1,0.4-0.2,0.9-0.3c0.5-0.1,1.3-0.1,2.3-0.1c0.1,0,0.1,0,0-0.1c-0.1-0.1-0.1-0.1,0-0.2c1-1.5,2.1-3.1,3.4-4.6
		c1.3-1.5,2.7-3.1,4.1-4.8c0.1-0.1,0.7-0.4,1.7-0.8c0.5-0.2,0.9-0.3,1.1-0.4c0.2-0.1,0.5-0.1,0.7-0.1c0.2,0,0.3,0.1,0.3,0.3
		c0,0.1-0.1,0.2-0.3,0.2c-1.9,0.4-5.2,3.7-9.6,9.8c-0.3,0.5-0.3,0.7,0.2,0.7h4.5c1.2,0,2.2,0,2.8,0c0.7,0,1.1,0,1.3,0
		c0.2,0,0.3,0,0.4,0.1c0,0-0.1,0.2-0.2,0.3c-0.1,0.2-0.3,0.3-0.5,0.3c-1.2,0-2.5,0.1-4,0.2c-1.5,0.1-3.3,0.2-5.2,0.3
		c-0.4,0.1-0.6,0.2-0.8,0.5c-1.1,1.6-2.1,3.2-3.1,4.8c-1,1.6-1.9,3.3-2.9,5.2c-1.4,3-2.6,5.6-3.4,8c-0.8,2.4-1.3,4.6-1.5,6.5
		c0,0.3,0,0.5,0,0.7c0,0.2,0,0.5,0,0.7c0,3.6,1.3,5.4,3.8,5.4c0.7,0,1.5-0.1,2.4-0.4c1.3-0.4,2.6-1.1,3.9-2c1.3-0.9,2.6-2,3.9-3.5
		c1.4-1.4,2.4-2.8,3.1-4c0.7-1.2,1.2-2.4,1.3-3.5c0-1.9-0.7-2.8-2.1-2.6c-0.3,0-0.6,0.1-0.8,0.3c-0.2,0.1-0.4,0.2-0.5,0.2
		c-0.2,0-0.3-0.1-0.2-0.3c0.1-0.2,0.3-0.3,0.4-0.4s0.6-0.3,1.1-0.5c0.1,0,0.2,0,0.4,0c0.7,0,1.3,0.4,1.9,1.3
		c0.6,0.9,0.9,1.6,0.9,2.1c-0.4,2.7-2.4,5.7-5.9,8.9c-1.8,1.6-3.5,2.8-5,3.7c-1.6,0.8-3,1.2-4.4,1.2C120,44.7,118.6,44.1,117.5,42.8
		z"/>
	<path fill-rule="evenodd" clip-rule="evenodd" fill="#E5AD4F" class="path" d="M132.4,24.4c-0.5,0.4-1.1,0.8-1.7,1.2c-0.6,0.4-1.2,0.8-1.8,1.2s-1.2,0.7-1.6,0.9c-0.1,0-0.3,0-0.6,0
		s-0.5-0.1-0.8-0.3c-0.3-0.2-0.5-0.4-0.7-0.6s-0.3-0.6-0.3-0.9c0-0.3,0.1-0.8,0.2-1.3c0.2-0.5,0.4-1.1,0.6-1.7s0.5-1.2,0.8-1.8
		c0.3-0.6,0.6-1.2,0.8-1.7c0.2-0.5,0.5-0.9,0.6-1.3c0.2-0.4,0.3-0.6,0.3-0.7c0-0.2,0.2-0.4,0.4-0.5c0.2-0.1,0.4-0.1,0.6,0
		c0.2,0.1,0.3,0.2,0.4,0.4c0.1,0.2,0,0.5-0.2,0.9c-0.7,1.3-1.2,2.3-1.6,3.1c-0.4,0.7-0.7,1.2-0.8,1.6c-0.2,0.3-0.3,0.5-0.3,0.6
		c0,0.1-0.1,0.1-0.1,0.2c0,0.1-0.1,0.2-0.1,0.3c-0.1,0.2-0.2,0.5-0.5,1s-0.4,0.9-0.4,1.2c0,0.3,0.1,0.5,0.2,0.6
		c0.1,0.1,0.3,0.2,0.5,0.2c0.2,0,0.4,0,0.6-0.1c0.4-0.1,0.9-0.3,1.5-0.6c0.6-0.3,1.2-0.7,1.8-1.1s1.2-0.8,1.7-1.2
		c0.5-0.4,1-0.7,1.2-1c0.2-0.2,0.3-0.3,0.4-0.3c0.1,0,0.1,0,0.1,0.1c0,0.1,0,0.2-0.1,0.3c-0.1,0.1-0.2,0.2-0.3,0.3
		C133.3,23.7,132.9,24,132.4,24.4z M130.7,15.1c-0.5,0.4-0.8,0.6-1.1,0.6c-0.5-0.1-0.7-0.3-0.7-0.5c0-0.3,0.2-0.7,0.7-1.1
		c0.5-0.5,0.9-0.8,1.1-0.8c0.2,0,0.4,0,0.6,0.2c0.2,0.2,0.3,0.4,0.2,0.5C131.5,14.2,131.2,14.6,130.7,15.1z"/>
	<path fill-rule="evenodd" clip-rule="evenodd" fill="#E5AD4F" class="path" d="M145,19.2c-0.5,0.4-1,0.6-1.6,0.7c-0.4,0.1-0.9,0.1-1.5,0.1c-0.7,0-1.4,0-2.2,0c-0.8,0-1.6,0-2.4,0
		c-0.8,0-1.5,0-2.1,0c-0.2,0.4-0.5,0.7-0.7,1.2c-0.3,0.4-0.5,0.9-0.7,1.3c-0.2,0.5-0.4,1-0.6,1.5c-0.2,0.5-0.3,1-0.3,1.6
		c0,0.5,0,0.9,0.1,1.2c0.1,0.3,0.3,0.6,0.5,0.7c0.2,0.2,0.4,0.3,0.7,0.3c0.2,0.1,0.5,0.1,0.8,0c0.3,0,0.7-0.1,1.1-0.2
		c0.4-0.1,0.7-0.2,1.1-0.4c0.4-0.1,0.7-0.3,1.1-0.5c0.3-0.2,0.6-0.4,0.9-0.5c0.2-0.1,0.3-0.1,0.4-0.1c0.1,0.1,0,0.2-0.1,0.3
		c-0.2,0.2-0.5,0.4-0.8,0.6c-0.3,0.2-0.6,0.4-1,0.7c-0.4,0.2-0.7,0.4-1.1,0.6c-0.4,0.2-0.8,0.3-1.1,0.3c-0.3,0.1-0.6,0-1-0.1
		c-0.4-0.2-0.7-0.4-1-0.7s-0.6-0.6-0.8-1c-0.2-0.4-0.3-0.8-0.3-1.3c0.1-1.2,0.4-2.5,0.9-3.7c0.6-1.2,1.2-2.4,2-3.5
		c0.8-1.1,1.6-2,2.5-2.8c0.9-0.8,1.7-1.3,2.4-1.6c0.4-0.1,0.7-0.1,1,0c0.3,0.2,0.5,0.4,0.7,0.7c0.2,0.3,0.3,0.7,0.3,1.1
		c0,0.4-0.1,0.8-0.2,1.1c-0.3,0.6-0.8,1.2-1.6,1.6c-0.8,0.4-1.7,0.7-2.7,0.9c0.6,0,1.1,0,1.7,0c0.6,0,1.1,0,1.7,0c0.5,0,1,0,1.5,0
		c0.5,0,0.8-0.1,1.2-0.1c0.5,0,0.9-0.2,1.3-0.4c0.4-0.3,0.8-0.5,1-0.7C145.9,18,146,18,146,18c0.1,0,0.1,0.1,0,0.3
		C145.8,18.6,145.5,18.9,145,19.2z M141.4,15.8c0-0.3,0-0.5-0.2-0.6c-0.1-0.1-0.3-0.2-0.6-0.2c-0.2,0-0.5,0.1-0.8,0.3
		c-0.8,0.5-1.6,1.1-2.3,1.9s-1.5,1.6-2.2,2.4c0.5,0,1.1-0.1,1.6-0.2c0.6-0.1,1.1-0.3,1.6-0.6c0.5-0.2,1-0.5,1.4-0.9
		c0.4-0.3,0.7-0.7,1-1.1C141.3,16.4,141.4,16,141.4,15.8z M140.8,12.4c-0.1-0.1-0.1-0.2,0-0.3c0.3-0.2,0.7-0.5,1-0.9
		c0.4-0.4,0.8-0.7,1.2-1.1c0.4-0.4,0.8-0.7,1.1-1c0.4-0.3,0.7-0.6,0.9-0.8c0.1-0.1,0.2-0.1,0.4,0c0.1,0.1,0.2,0.2,0.3,0.3
		s0.1,0.3,0.2,0.4c0,0.1,0,0.3-0.2,0.3c-0.3,0.2-0.6,0.4-1,0.7c-0.4,0.2-0.8,0.5-1.2,0.8c-0.4,0.3-0.9,0.6-1.3,0.8
		c-0.4,0.3-0.8,0.5-1.1,0.8C140.9,12.5,140.8,12.4,140.8,12.4z"/>
</g>
</svg>
